<svg width="144" height="39" viewBox="0 0 144 39" fill="none" xmlns="http://www.w3.org/2000/svg">
<path d="M9 24L21 24V21H9V24ZM9 19.5L27 19.5V16.5L9 16.5L9 19.5ZM9 15L27 15V12L9 12V15ZM3 36L3 9C3 8.175 3.294 7.4685 3.882 6.8805C4.47 6.2925 5.176 5.999 6 6L30 6C30.825 6 31.5315 6.294 32.1195 6.882C32.7075 7.47 33.001 8.176 33 9V27C33 27.825 32.706 28.5315 32.118 29.1195C31.53 29.7075 30.824 30.001 30 30L9 30L3 36Z" fill="#1E71FF"/>
<path d="M39.792 19.352C39.792 17.976 40.072 16.776 40.632 15.752C41.192 14.712 41.968 13.912 42.96 13.352C43.952 12.776 45.088 12.488 46.368 12.488C48.016 12.488 49.376 12.904 50.448 13.736C51.536 14.552 52.264 15.704 52.632 17.192H49.008C48.816 16.616 48.488 16.168 48.024 15.848C47.576 15.512 47.016 15.344 46.344 15.344C45.384 15.344 44.624 15.696 44.064 16.4C43.504 17.088 43.224 18.072 43.224 19.352C43.224 20.616 43.504 21.6 44.064 22.304C44.624 22.992 45.384 23.336 46.344 23.336C47.704 23.336 48.592 22.728 49.008 21.512H52.632C52.264 22.952 51.536 24.096 50.448 24.944C49.36 25.792 48 26.216 46.368 26.216C45.088 26.216 43.952 25.936 42.96 25.376C41.968 24.8 41.192 24 40.632 22.976C40.072 21.936 39.792 20.728 39.792 19.352ZM62.5815 12.512C63.5895 12.512 64.4855 12.736 65.2695 13.184C66.0535 13.616 66.6615 14.264 67.0935 15.128C67.5415 15.976 67.7655 17 67.7655 18.2V26H64.4055V18.656C64.4055 17.6 64.1415 16.792 63.6135 16.232C63.0855 15.656 62.3655 15.368 61.4535 15.368C60.5255 15.368 59.7895 15.656 59.2455 16.232C58.7175 16.792 58.4535 17.6 58.4535 18.656V26H55.0935V8.24H58.4535V14.36C58.8855 13.784 59.4615 13.336 60.1815 13.016C60.9015 12.68 61.7015 12.512 62.5815 12.512ZM70.0967 19.304C70.0967 17.96 70.3607 16.768 70.8887 15.728C71.4327 14.688 72.1607 13.888 73.0727 13.328C74.0007 12.768 75.0327 12.488 76.1687 12.488C77.1607 12.488 78.0247 12.688 78.7607 13.088C79.5127 13.488 80.1127 13.992 80.5607 14.6V12.704H83.9447V26L80.5607 26V24.056C80.1287 24.68 79.5287 25.2 78.7607 25.616C78.0087 26.016 77.1367 26.216 76.1447 26.216C75.0247 26.216 74.0007 25.928 73.0727 25.352C72.1607 24.776 71.4327 23.968 70.8887 22.928C70.3607 21.872 70.0967 20.664 70.0967 19.304ZM80.5607 19.352C80.5607 18.536 80.4007 17.84 80.0807 17.264C79.7607 16.672 79.3287 16.224 78.7847 15.92C78.2407 15.6 77.6567 15.44 77.0327 15.44C76.4087 15.44 75.8327 15.592 75.3047 15.896C74.7767 16.2 74.3447 16.648 74.0087 17.24C73.6887 17.816 73.5287 18.504 73.5287 19.304C73.5287 20.104 73.6887 20.808 74.0087 21.416C74.3447 22.008 74.7767 22.464 75.3047 22.784C75.8487 23.104 76.4247 23.264 77.0327 23.264C77.6567 23.264 78.2407 23.112 78.7847 22.808C79.3287 22.488 79.7607 22.04 80.0807 21.464C80.4007 20.872 80.5607 20.168 80.5607 19.352ZM91.1383 15.464V21.896C91.1383 22.344 91.2423 22.672 91.4503 22.88C91.6743 23.072 92.0423 23.168 92.5543 23.168H94.1143V26H92.0023C89.1703 26 87.7543 24.624 87.7543 21.872V15.464H86.1703V12.704H87.7543V9.416L91.1383 9.416V12.704H94.1143V15.464H91.1383ZM96.171 19.472C96.171 18.128 96.435 16.952 96.963 15.944C97.507 14.936 98.251 14.16 99.195 13.616C100.155 13.072 101.243 12.8 102.459 12.8C103.835 12.8 105.003 13.136 105.963 13.808C106.923 14.48 107.595 15.336 107.979 16.376V12.968H109.059V26H107.979V22.568C107.595 23.624 106.915 24.496 105.939 25.184C104.979 25.856 103.819 26.192 102.459 26.192C101.243 26.192 100.155 25.92 99.195 25.376C98.251 24.816 97.507 24.032 96.963 23.024C96.435 22 96.171 20.816 96.171 19.472ZM107.979 19.472C107.979 18.336 107.739 17.336 107.259 16.472C106.795 15.592 106.155 14.92 105.339 14.456C104.523 13.976 103.611 13.736 102.603 13.736C101.547 13.736 100.619 13.968 99.819 14.432C99.019 14.88 98.395 15.536 97.947 16.4C97.499 17.264 97.275 18.288 97.275 19.472C97.275 20.656 97.499 21.68 97.947 22.544C98.395 23.408 99.019 24.072 99.819 24.536C100.635 25 101.563 25.232 102.603 25.232C103.611 25.232 104.523 25 105.339 24.536C106.171 24.056 106.819 23.384 107.283 22.52C107.747 21.64 107.979 20.624 107.979 19.472ZM114.071 16.4C114.439 15.344 115.103 14.48 116.063 13.808C117.039 13.136 118.215 12.8 119.591 12.8C120.807 12.8 121.887 13.072 122.831 13.616C123.791 14.16 124.535 14.936 125.063 15.944C125.607 16.952 125.879 18.128 125.879 19.472C125.879 20.816 125.607 22 125.063 23.024C124.535 24.032 123.791 24.816 122.831 25.376C121.887 25.92 120.807 26.192 119.591 26.192C118.231 26.192 117.063 25.856 116.087 25.184C115.127 24.496 114.455 23.632 114.071 22.592V32.144H112.991V12.968H114.071V16.4ZM124.775 19.472C124.775 18.288 124.551 17.264 124.103 16.4C123.655 15.536 123.023 14.88 122.207 14.432C121.407 13.968 120.479 13.736 119.423 13.736C118.415 13.736 117.503 13.976 116.687 14.456C115.871 14.92 115.231 15.592 114.767 16.472C114.303 17.336 114.071 18.336 114.071 19.472C114.071 20.624 114.303 21.64 114.767 22.52C115.231 23.384 115.871 24.056 116.687 24.536C117.503 25 118.415 25.232 119.423 25.232C120.479 25.232 121.407 25 122.207 24.536C123.023 24.072 123.655 23.408 124.103 22.544C124.551 21.68 124.775 20.656 124.775 19.472ZM130.22 16.4C130.588 15.344 131.252 14.48 132.212 13.808C133.188 13.136 134.364 12.8 135.74 12.8C136.956 12.8 138.036 13.072 138.98 13.616C139.94 14.16 140.684 14.936 141.212 15.944C141.756 16.952 142.028 18.128 142.028 19.472C142.028 20.816 141.756 22 141.212 23.024C140.684 24.032 139.94 24.816 138.98 25.376C138.036 25.92 136.956 26.192 135.74 26.192C134.38 26.192 133.212 25.856 132.236 25.184C131.276 24.496 130.604 23.632 130.22 22.592V32.144H129.14V12.968H130.22V16.4ZM140.924 19.472C140.924 18.288 140.7 17.264 140.252 16.4C139.804 15.536 139.172 14.88 138.356 14.432C137.556 13.968 136.628 13.736 135.572 13.736C134.564 13.736 133.652 13.976 132.836 14.456C132.02 14.92 131.38 15.592 130.916 16.472C130.452 17.336 130.22 18.336 130.22 19.472C130.22 20.624 130.452 21.64 130.916 22.52C131.38 23.384 132.02 24.056 132.836 24.536C133.652 25 134.564 25.232 135.572 25.232C136.628 25.232 137.556 25 138.356 24.536C139.172 24.072 139.804 23.408 140.252 22.544C140.7 21.68 140.924 20.656 140.924 19.472Z" fill="#1E71FF"/>
</svg>
