<svg width="529" height="399" viewBox="0 0 529 399" fill="none" xmlns="http://www.w3.org/2000/svg">
<g clip-path="url(#clip0_13_381)">
<path opacity="0.24" d="M138.751 388.724C145.72 389.129 152.135 392.993 159.477 393.985C208.906 400.67 259.008 400.67 308.436 393.985C331.66 390.851 354.274 384.883 377.666 383.479C401.667 382.027 426.533 384.503 449.655 376.488C477.288 366.903 497.293 341.804 498.411 315.309C499.482 290.043 485.114 266.603 477.399 242.306C468.272 213.477 468.519 182.493 478.105 153.814C487.739 125.009 506.745 97.5698 504.961 67.5514C502.463 25.543 451.36 -8.31597 405.759 1.80127C381.876 7.09397 361.839 21.9246 338.226 28.1061C299.872 38.1598 258.664 24.1385 218.954 28.1061C185.224 31.5499 154.157 48.1739 131.59 70.8841C109.024 93.5943 94.458 121.97 85.6566 151.282C77.8939 177.167 74.1671 204.543 59.5774 227.943C48.8888 245.075 32.4992 259.914 27.7099 279.085C22.096 301.549 5.43676 381.059 138.751 388.724Z" fill="#1E71FF"/>
<path d="M85.8074 188.212V228.84C85.8063 231.072 86.2449 233.283 87.0981 235.346C87.9513 237.408 89.2023 239.282 90.7797 240.861C92.357 242.44 94.2298 243.691 96.2909 244.545C98.352 245.399 100.561 245.838 102.792 245.837H105.844V263.699L115.114 245.837H185.596C190.101 245.837 194.421 244.046 197.606 240.859C200.791 237.671 202.581 233.348 202.581 228.84V188.212C202.582 185.98 202.143 183.769 201.29 181.707C200.437 179.644 199.186 177.77 197.609 176.191C196.031 174.613 194.158 173.361 192.097 172.507C190.036 171.653 187.827 171.214 185.596 171.215H102.792C100.561 171.214 98.352 171.653 96.2909 172.507C94.2298 173.361 92.357 174.613 90.7797 176.191C89.2023 177.77 87.9513 179.644 87.0981 181.707C86.2449 183.769 85.8063 185.98 85.8074 188.212Z" fill="#1E71FF"/>
<path d="M85.8074 188.212V228.84C85.8063 231.072 86.2449 233.283 87.0981 235.346C87.9513 237.408 89.2023 239.282 90.7797 240.861C92.357 242.44 94.2298 243.691 96.2909 244.545C98.352 245.399 100.561 245.838 102.792 245.837H105.844V263.699L115.114 245.837H185.596C190.101 245.837 194.421 244.046 197.606 240.859C200.791 237.671 202.581 233.348 202.581 228.84V188.212C202.582 185.98 202.143 183.769 201.29 181.707C200.437 179.644 199.186 177.77 197.609 176.191C196.031 174.613 194.158 173.361 192.097 172.507C190.036 171.653 187.827 171.214 185.596 171.215H102.792C100.561 171.214 98.352 171.653 96.2909 172.507C94.2298 173.361 92.357 174.613 90.7797 176.191C89.2023 177.77 87.9513 179.644 87.0981 181.707C86.2449 183.769 85.8063 185.98 85.8074 188.212Z" fill="url(#paint0_linear_13_381)"/>
<path d="M100.865 190.839H187.872V185.975H100.865V190.839Z" fill="#1E71FF"/>
<path d="M100.865 203.686H187.872V198.822H100.865V203.686Z" fill="#1E71FF"/>
<path d="M100.865 216.525H187.872V211.661H100.865V216.525Z" fill="#1E71FF"/>
<path d="M253.011 386.986C325.88 386.986 384.953 377.209 384.953 365.149C384.953 353.088 325.88 343.312 253.011 343.312C180.141 343.312 121.069 353.088 121.069 365.149C121.069 377.209 180.141 386.986 253.011 386.986Z" fill="url(#paint1_linear_13_381)"/>
<path d="M316.357 47.6899H197.419C183.795 47.6899 172.751 58.7422 172.751 72.3759V348.303C172.751 361.936 183.795 372.989 197.419 372.989H316.357C329.981 372.989 341.025 361.936 341.025 348.303V72.3759C341.025 58.7422 329.981 47.6899 316.357 47.6899Z" fill="#1E71FF"/>
<path d="M329.226 75.1532V345.081H183.749V75.1532C183.757 72.4473 184.835 69.8546 186.747 67.9412C188.659 66.0278 191.25 64.9491 193.954 64.9408H231.443C231.447 67.2285 232.358 69.4211 233.975 71.038C235.592 72.6549 237.784 73.5641 240.07 73.5662H273.888C275.024 73.5693 276.148 73.3484 277.198 72.916C278.248 72.4837 279.202 71.8483 280.007 71.0465C280.811 70.2446 281.449 69.2918 281.885 68.2428C282.321 67.1937 282.546 66.069 282.547 64.9328H319.021C321.728 64.937 324.322 66.0154 326.235 67.9314C328.149 69.8474 329.224 72.4446 329.226 75.1532Z" fill="url(#paint2_linear_13_381)"/>
<path opacity="0.24" d="M321.012 272.205H190.37V338.63H321.012V272.205Z" fill="#1E71FF"/>
<path opacity="0.51" d="M322.003 126.184H190.061V253.256H322.003V126.184Z" fill="#1E71FF"/>
<path d="M246.104 296.717L253.597 289.305L258.624 290.44V291.876L250.719 300.502L244.051 300.811L246.104 296.717Z" fill="#606161"/>
<path d="M253.019 290.369L256.833 291.424L249.593 298.875L246.81 298.899L247.278 295.963L253.019 290.369Z" fill="url(#paint3_linear_13_381)"/>
<path d="M210.708 318.086C210.708 318.086 239.563 304.803 245.034 306.929C250.505 309.056 265.095 335.337 265.095 335.337L254.795 335.13L238.381 320.958L224.426 332.663L204.143 331.457L210.708 318.086Z" fill="#606161"/>
<path d="M210.708 318.086C210.708 318.086 239.563 304.803 245.034 306.929C250.505 309.056 265.095 335.337 265.095 335.337L254.795 335.13L238.381 320.958L224.426 332.663L204.143 331.457L210.708 318.086Z" fill="url(#paint4_linear_13_381)"/>
<path d="M187.721 337.9C187.721 337.9 189.672 344.573 194.905 345.295C200.139 346.017 278.225 344.153 278.225 344.153C278.868 343.789 279.421 343.287 279.846 342.683C280.272 342.08 280.557 341.389 280.683 340.661C281.302 337.987 279.661 335.107 279.661 335.107L214.308 327.545L187.721 337.9Z" fill="#606161"/>
<path d="M187.721 337.9C187.721 337.9 189.672 344.573 194.905 345.295C200.139 346.017 278.225 344.153 278.225 344.153C278.868 343.789 279.421 343.287 279.846 342.683C280.272 342.08 280.557 341.389 280.683 340.661C281.302 337.987 279.661 335.107 279.661 335.107L214.308 327.545L187.721 337.9Z" fill="url(#paint5_linear_13_381)"/>
<path d="M241.593 300.597C243.822 300.628 245.997 301.291 247.865 302.509C248.786 303.13 249.537 303.971 250.049 304.956C250.562 305.942 250.819 307.04 250.798 308.151C250.805 308.475 250.701 308.791 250.505 309.048C250.272 309.269 249.961 309.389 249.641 309.381C247.872 309.437 246.747 307.374 245.034 306.929C243.932 306.643 242.774 307.072 241.64 307.001C240.966 306.949 240.317 306.726 239.753 306.352C239.19 305.978 238.731 305.467 238.421 304.866C238.164 304.358 238.023 303.798 238.01 303.228C237.996 302.659 238.109 302.093 238.342 301.573C238.984 300.462 240.411 300.51 241.593 300.597Z" fill="#F4A982"/>
<path d="M222.991 300.081C222.983 300.186 222.995 300.29 223.028 300.39C223.061 300.489 223.113 300.581 223.181 300.66C223.344 300.77 223.542 300.815 223.736 300.787L239.055 300.486C239.426 302.333 239.445 304.234 239.111 306.088C239.082 306.393 238.97 306.684 238.786 306.929C238.461 307.21 238.049 307.367 237.62 307.374C231.149 308.209 224.775 309.676 218.59 311.754C217.97 312.036 217.284 312.14 216.608 312.055C215.355 311.777 214.784 310.333 214.522 309.08C213.642 304.85 213.967 300.47 213.468 296.177C213.222 294.09 212.802 291.876 213.666 289.956C214.459 288.179 220.168 283.798 221.373 286.623C222.166 288.496 222.11 291.313 222.348 293.328C222.634 295.571 222.848 297.822 222.991 300.081Z" fill="#1E71FF"/>
<path d="M222.991 300.081C222.983 300.186 222.995 300.29 223.028 300.39C223.061 300.489 223.113 300.581 223.181 300.66C223.344 300.77 223.542 300.815 223.736 300.787L239.055 300.486C239.426 302.333 239.445 304.234 239.111 306.088C239.082 306.393 238.97 306.684 238.786 306.929C238.461 307.21 238.049 307.367 237.62 307.374C231.149 308.209 224.775 309.676 218.59 311.754C217.97 312.036 217.284 312.14 216.608 312.055C215.355 311.777 214.784 310.333 214.522 309.08C213.642 304.85 213.967 300.47 213.468 296.177C213.222 294.09 212.802 291.876 213.666 289.956C214.459 288.179 220.168 283.798 221.373 286.623C222.166 288.496 222.11 291.313 222.348 293.328C222.634 295.571 222.848 297.822 222.991 300.081Z" fill="url(#paint6_linear_13_381)"/>
<path d="M241.823 300.708C242.374 299.412 243.185 298.243 244.205 297.273C245.225 296.303 246.433 295.552 247.754 295.066C248.372 296.13 246.398 297.605 247.238 298.51C247.41 298.645 247.608 298.741 247.82 298.793C248.032 298.845 248.253 298.851 248.467 298.812L253.542 298.597C253.699 298.57 253.861 298.604 253.994 298.693C254.087 298.789 254.143 298.916 254.153 299.05C254.172 299.56 254.068 300.067 253.85 300.528C253.632 300.99 253.306 301.392 252.9 301.7C252.107 302.374 251.219 302.866 250.473 303.557C249.26 304.676 248.491 306.326 247 307.048C245.874 307.596 244.542 307.508 243.369 307.929C241.926 308.453 240.578 309.77 239.103 309.326C238.397 309.119 239.19 304.953 239.547 304.477C240.475 303.331 241.241 302.063 241.823 300.708Z" fill="#F4A982"/>
<path d="M220.612 275.538C221.508 276.337 222.474 277.054 223.498 277.68C223.884 277.964 224.351 278.117 224.83 278.117C225.369 278.011 225.85 277.708 226.178 277.268C227.098 276.267 227.857 275.129 228.43 273.895C228.496 273.711 228.602 273.543 228.739 273.403C229.215 272.983 229.984 273.403 230.587 273.181C230.805 273.092 230.995 272.944 231.135 272.753C231.275 272.563 231.359 272.337 231.38 272.102C231.42 271.634 231.386 271.162 231.276 270.705C231.084 269.673 231.025 268.619 231.102 267.571C231.269 265.897 231.935 264.23 231.594 262.588C231.181 261.168 230.353 259.905 229.215 258.962C228.452 258.171 227.562 257.514 226.582 257.017C225.42 256.543 224.175 256.305 222.919 256.319C221.387 256.158 219.843 256.489 218.51 257.263C217.281 258.12 216.6 259.549 215.973 260.914L210.637 272.546C210.472 272.848 210.388 273.187 210.391 273.53C210.446 273.824 210.577 274.097 210.772 274.324C211.842 275.842 213.251 277.089 214.887 277.966C215.807 278.458 217.432 279.133 218.439 278.498C219.446 277.863 219.906 276.347 220.612 275.538Z" fill="#F4A982"/>
<path d="M236.692 260.707C237.471 259.816 238.007 258.738 238.248 257.579C238.49 256.42 238.429 255.218 238.072 254.089C237.974 253.719 237.783 253.381 237.517 253.105C237.142 252.834 236.707 252.66 236.248 252.598C233.211 251.906 230.291 250.772 227.582 249.233C226.067 248.368 224.529 247.353 222.824 247.297C221.877 247.284 220.948 247.555 220.156 248.073C219.363 248.592 218.744 249.336 218.376 250.209C217.933 249.934 217.43 249.771 216.91 249.737C216.39 249.702 215.869 249.796 215.395 250.011C214.444 250.451 213.65 251.171 213.119 252.074C211.644 254.454 211.581 257.375 211.533 260.152L211.477 269.15C211.466 269.317 211.488 269.484 211.541 269.642C211.634 269.813 211.781 269.947 211.96 270.023C212.138 270.099 212.337 270.113 212.524 270.063C212.896 269.959 213.239 269.769 213.523 269.507C214.689 268.587 215.839 267.65 216.988 266.706C216.474 265.935 216.241 265.01 216.331 264.087C216.42 263.164 216.826 262.301 217.48 261.644C217.635 261.474 217.836 261.352 218.059 261.294C218.25 261.286 218.441 261.323 218.616 261.401C218.791 261.48 218.945 261.598 219.066 261.747C219.765 262.518 220.144 263.527 220.125 264.568C220.105 265.609 219.69 266.604 218.963 267.349C220.244 266.858 221.278 265.879 221.841 264.627C222.387 263.382 223.102 262.218 223.966 261.168C224.917 260.199 226.495 259.66 227.645 260.374C229.231 261.35 229.461 262.977 231.61 262.977C232.568 262.972 233.515 262.768 234.39 262.377C235.265 261.986 236.049 261.418 236.692 260.707Z" fill="#606161"/>
<path d="M236.692 260.707C237.471 259.816 238.007 258.738 238.248 257.579C238.49 256.42 238.429 255.218 238.072 254.089C237.974 253.719 237.783 253.381 237.517 253.105C237.142 252.834 236.707 252.66 236.248 252.598C233.211 251.906 230.291 250.772 227.582 249.233C226.067 248.368 224.529 247.353 222.824 247.297C221.877 247.284 220.948 247.555 220.156 248.073C219.363 248.592 218.744 249.336 218.376 250.209C217.933 249.934 217.43 249.771 216.91 249.737C216.39 249.702 215.869 249.796 215.395 250.011C214.444 250.451 213.65 251.171 213.119 252.074C211.644 254.454 211.581 257.375 211.533 260.152L211.477 269.15C211.466 269.317 211.488 269.484 211.541 269.642C211.634 269.813 211.781 269.947 211.96 270.023C212.138 270.099 212.337 270.113 212.524 270.063C212.896 269.959 213.239 269.769 213.523 269.507C214.689 268.587 215.839 267.65 216.988 266.706C216.474 265.935 216.241 265.01 216.331 264.087C216.42 263.164 216.826 262.301 217.48 261.644C217.635 261.474 217.836 261.352 218.059 261.294C218.25 261.286 218.441 261.323 218.616 261.401C218.791 261.48 218.945 261.598 219.066 261.747C219.765 262.518 220.144 263.527 220.125 264.568C220.105 265.609 219.69 266.604 218.963 267.349C220.244 266.858 221.278 265.879 221.841 264.627C222.387 263.382 223.102 262.218 223.966 261.168C224.917 260.199 226.495 259.66 227.645 260.374C229.231 261.35 229.461 262.977 231.61 262.977C232.568 262.972 233.515 262.768 234.39 262.377C235.265 261.986 236.049 261.418 236.692 260.707Z" fill="url(#paint7_linear_13_381)"/>
<path d="M214.237 320.443C214.506 322.823 214.935 325.251 214.308 327.584C213.587 330.235 211.565 332.417 209.273 334.123C204.706 337.455 199.193 339.238 193.542 339.209C190.409 339.209 186.897 338.416 185.327 335.853C184.288 334.178 184.344 332.123 184.431 330.187L184.883 320.109C185.208 312.793 185.549 305.421 187.412 298.312C189.276 291.202 192.812 284.29 198.64 279.386C200.514 277.724 202.723 276.484 205.118 275.752C214.102 273.284 223.95 278.799 220.77 287.877C216.869 299.01 212.873 308.373 214.237 320.443Z" fill="#1E71FF"/>
<path d="M200.789 319.855C200.924 320.649 200.503 322.696 200.932 323.387C201.962 325.021 202.779 337.257 204.658 336.789C206.538 336.321 212.445 330.052 213.959 328.854C215.275 327.806 214.435 318.411 213.959 316.785C213.685 316.108 213.287 315.489 212.786 314.959C210.922 312.579 210.455 309.357 210.407 306.318C210.359 303.279 210.661 300.192 210.09 297.209C209.487 294.035 207.521 290.464 204.127 289.758C199.647 288.837 199.592 291.17 200.495 294.241C202.906 302.414 199.409 311.452 200.789 319.855Z" fill="url(#paint8_linear_13_381)"/>
<path d="M285.6 336.646C286.116 337.27 286.374 338.068 286.321 338.876C286.39 339.51 286.371 340.151 286.266 340.78C286.158 341.418 285.805 341.988 285.283 342.367C284.637 342.688 283.913 342.815 283.197 342.732L281.318 342.685C280.672 342.705 280.028 342.625 279.407 342.447C279.098 342.357 278.813 342.197 278.575 341.98C278.337 341.762 278.153 341.493 278.035 341.193C277.905 340.726 277.905 340.232 278.035 339.765C278.384 338.178 278.828 336.011 280.707 335.995C282 335.972 284.64 335.765 285.6 336.646Z" fill="#F4A982"/>
<path d="M290.302 322.395C288.65 325.816 286.797 329.136 284.751 332.337C284.071 333.219 283.646 334.27 283.522 335.376C283.587 336.121 283.747 336.855 283.998 337.559C284.309 338.714 284.393 339.918 284.244 341.106C284.113 341.775 284.042 342.455 284.03 343.137C284.028 343.479 284.108 343.816 284.264 344.119C284.42 344.423 284.647 344.685 284.926 344.883C285.372 345.11 285.869 345.217 286.369 345.192L292.339 345.446C292.703 345.482 293.07 345.458 293.426 345.375C294.092 345.109 294.638 344.606 294.956 343.962C297.771 339.36 296.843 333.488 297.819 328.179C298.223 325.981 298.968 323.823 299.024 321.585C299.089 320.931 299.015 320.269 298.806 319.646C298.597 319.022 298.258 318.449 297.811 317.967C296.827 317.094 294.996 317.173 294.441 318.356" fill="#606161"/>
<path d="M290.302 322.395C288.65 325.816 286.797 329.136 284.751 332.337C284.071 333.219 283.646 334.27 283.522 335.376C283.587 336.121 283.747 336.855 283.998 337.559C284.309 338.714 284.393 339.918 284.244 341.106C284.113 341.775 284.042 342.455 284.03 343.137C284.028 343.479 284.108 343.816 284.264 344.119C284.42 344.423 284.647 344.685 284.926 344.883C285.372 345.11 285.869 345.217 286.369 345.192C288.359 345.279 288.216 345.121 290.207 345.192C290.571 345.222 290.937 345.195 291.293 345.113C291.96 344.847 292.505 344.344 292.823 343.7C295.638 339.098 295.392 333.972 296.368 328.663C296.772 326.465 297.517 324.307 297.573 322.069C297.639 321.415 297.565 320.753 297.356 320.129C297.147 319.505 296.807 318.933 296.36 318.451C295.376 317.57 294.996 317.15 294.441 318.34" fill="url(#paint9_linear_13_381)"/>
<path d="M200.995 289.813C200.995 289.813 200.86 281.085 208.655 280.363C216.449 279.64 217.686 287.893 217.416 290.194C217.147 292.495 218.645 305.66 218.645 305.66L239.579 304.295L240.371 310.317C240.371 310.317 210.962 319.213 209.321 317.3C207.679 315.388 205.634 311.714 200.995 289.813Z" fill="#1E71FF"/>
<path d="M192.836 286.036C192.836 286.036 198.291 286.528 201.844 284.878C205.396 283.227 214.966 281.362 217.829 282.092C221.238 282.965 220.929 280.505 220.929 280.505L207.632 276.379C207.632 276.379 195.976 280.926 194.985 282.83C194.384 283.972 193.664 285.047 192.836 286.036Z" fill="url(#paint10_linear_13_381)"/>
<path d="M210.843 270.92C209.471 269.65 208.012 268.333 206.189 267.92C204.365 267.508 202.105 268.388 201.701 270.214C201.55 270.872 201.534 271.737 200.908 271.951C200.511 272.086 200.115 271.856 199.671 271.872C199.362 271.912 199.07 272.036 198.827 272.231C198.584 272.425 198.399 272.683 198.291 272.975C198.03 273.546 197.934 274.173 197.673 274.737C197.023 276.173 195.5 276.942 194.311 277.974C193.121 279.006 192.202 280.831 193.153 282.084C194.105 283.338 195.817 283.021 197.221 282.64C200.718 281.688 204.151 280.418 207.735 279.855C211.319 279.291 215.165 279.49 218.297 281.315C221.738 283.33 221.643 279.355 219.2 277.942C216.029 276.117 213.563 273.395 210.843 270.92Z" fill="#1E71FF"/>
<path d="M210.137 275.316C209.24 275.197 208.372 274.914 207.576 274.483C205.794 273.666 203.967 272.951 202.105 272.34C202.001 272.314 201.903 272.265 201.819 272.197C201.723 272.095 201.662 271.964 201.645 271.824C201.486 271.031 201.708 269.539 202.644 269.404C203.382 269.293 204.809 270.356 205.411 270.729C207.3 271.898 208.912 273.463 210.137 275.316Z" fill="url(#paint11_linear_13_381)"/>
<path d="M208.068 276.704C207.164 276.649 206.704 277.696 201.986 276.768C200.067 276.387 200.186 276.681 198.323 276.07C198.218 276.043 198.121 275.994 198.037 275.927C197.941 275.824 197.88 275.694 197.863 275.554C197.704 274.8 197.926 273.269 198.862 273.134C199.599 273.023 201.027 274.086 201.629 274.459C203.508 275.649 204.595 276.601 208.068 276.704Z" fill="url(#paint12_linear_13_381)"/>
<path opacity="0.24" d="M205.348 121.216C211.785 121.216 217.004 115.994 217.004 109.552C217.004 103.11 211.785 97.8872 205.348 97.8872C198.911 97.8872 193.692 103.11 193.692 109.552C193.692 115.994 198.911 121.216 205.348 121.216Z" fill="#1E71FF"/>
<path opacity="0.51" d="M270.748 103.347H222.467V108.973H270.748V103.347Z" fill="#1E71FF"/>
<path opacity="0.24" d="M288.161 114.019H222.467V116.828H288.161V114.019Z" fill="#1E71FF"/>
<path d="M336.466 214.017C336.466 233.26 356.479 248.844 381.155 248.844C385.301 248.859 389.435 248.399 393.477 247.472L412.982 257.462L405.117 243.377C417.573 237.235 425.82 226.42 425.82 214.017C425.82 194.767 405.807 179.19 381.123 179.19C356.439 179.19 336.466 194.775 336.466 214.017Z" fill="#1E71FF"/>
<path d="M335.443 213.525C335.443 232.776 355.456 248.352 380.132 248.352C384.278 248.367 388.412 247.907 392.454 246.98L411.96 256.97L404.125 242.853C416.582 236.712 424.829 225.904 424.829 213.494C424.829 194.251 404.815 178.666 380.132 178.666C355.448 178.666 335.443 194.283 335.443 213.525Z" fill="url(#paint13_linear_13_381)"/>
<path d="M364.63 116.797C364.63 116.797 358.62 108.909 352.99 116.424C347.36 123.938 365.756 132.96 365.756 132.96C365.756 132.96 378.903 123.565 377.404 117.931C375.905 112.297 367.635 110.79 364.63 116.797Z" fill="white"/>
<path d="M139.322 136.682C139.322 136.682 134.302 130.088 129.6 136.364C124.898 142.641 140.265 150.172 140.265 150.172C140.265 150.172 151.231 142.324 149.978 137.618C149.658 136.505 149.008 135.514 148.114 134.778C147.22 134.041 146.124 133.593 144.971 133.491C143.817 133.39 142.66 133.64 141.652 134.21C140.643 134.78 139.831 135.641 139.322 136.682Z" fill="white"/>
<path d="M399.899 139.427C399.899 139.427 391.804 128.794 384.207 138.92C376.611 149.045 401.414 161.201 401.414 161.201C401.414 161.201 419.128 148.545 417.106 140.951C415.084 133.357 403.911 131.302 399.899 139.427Z" fill="white"/>
<path d="M154.887 111.337C154.887 111.337 151.279 106.576 147.893 111.115C144.507 115.654 155.569 121.05 155.569 121.05C155.569 121.05 163.458 115.4 162.562 112.02C162.331 111.218 161.864 110.505 161.22 109.974C160.577 109.444 159.788 109.12 158.958 109.046C158.128 108.972 157.294 109.152 156.568 109.561C155.841 109.97 155.255 110.589 154.887 111.337Z" fill="white"/>
</g>
<defs>
<linearGradient id="paint0_linear_13_381" x1="147.742" y1="293.812" x2="136.919" y2="34.2247" gradientUnits="userSpaceOnUse">
<stop stop-color="white" stop-opacity="0"/>
<stop offset="0.95" stop-color="white"/>
</linearGradient>
<linearGradient id="paint1_linear_13_381" x1="256.27" y1="294.908" x2="202.621" y2="1450.49" gradientUnits="userSpaceOnUse">
<stop stop-color="#010101" stop-opacity="0"/>
<stop offset="0.95" stop-color="#010101"/>
</linearGradient>
<linearGradient id="paint2_linear_13_381" x1="194.509" y1="584.514" x2="295.347" y2="-24.4398" gradientUnits="userSpaceOnUse">
<stop stop-color="white" stop-opacity="0"/>
<stop offset="0.95" stop-color="white"/>
</linearGradient>
<linearGradient id="paint3_linear_13_381" x1="249.871" y1="306.913" x2="253.055" y2="287.679" gradientUnits="userSpaceOnUse">
<stop stop-color="white" stop-opacity="0"/>
<stop offset="0.95" stop-color="white"/>
</linearGradient>
<linearGradient id="paint4_linear_13_381" x1="228.105" y1="313.349" x2="236.878" y2="340.316" gradientUnits="userSpaceOnUse">
<stop stop-color="#010101" stop-opacity="0"/>
<stop offset="0.95" stop-color="#010101"/>
</linearGradient>
<linearGradient id="paint5_linear_13_381" x1="233.172" y1="329.83" x2="235.983" y2="351.675" gradientUnits="userSpaceOnUse">
<stop stop-color="#010101" stop-opacity="0"/>
<stop offset="0.95" stop-color="#010101"/>
</linearGradient>
<linearGradient id="paint6_linear_13_381" x1="229.009" y1="291.805" x2="204.016" y2="352.186" gradientUnits="userSpaceOnUse">
<stop stop-color="#010101" stop-opacity="0"/>
<stop offset="0.95" stop-color="#010101"/>
</linearGradient>
<linearGradient id="paint7_linear_13_381" x1="211.477" y1="258.692" x2="238.397" y2="258.692" gradientUnits="userSpaceOnUse">
<stop stop-color="#010101" stop-opacity="0"/>
<stop offset="0.95" stop-color="#010101"/>
</linearGradient>
<linearGradient id="paint8_linear_13_381" x1="193.082" y1="316.356" x2="297.61" y2="283.525" gradientUnits="userSpaceOnUse">
<stop stop-color="#010101" stop-opacity="0"/>
<stop offset="0.95" stop-color="#010101"/>
</linearGradient>
<linearGradient id="paint9_linear_13_381" x1="283.554" y1="331.425" x2="297.604" y2="331.425" gradientUnits="userSpaceOnUse">
<stop stop-color="#010101" stop-opacity="0"/>
<stop offset="0.95" stop-color="#010101"/>
</linearGradient>
<linearGradient id="paint10_linear_13_381" x1="207.037" y1="284.743" x2="201.947" y2="235.974" gradientUnits="userSpaceOnUse">
<stop stop-color="#010101" stop-opacity="0"/>
<stop offset="0.95" stop-color="#010101"/>
</linearGradient>
<linearGradient id="paint11_linear_13_381" x1="205.443" y1="274.649" x2="213.471" y2="245.205" gradientUnits="userSpaceOnUse">
<stop stop-color="#010101" stop-opacity="0"/>
<stop offset="0.95" stop-color="#010101"/>
</linearGradient>
<linearGradient id="paint12_linear_13_381" x1="202.406" y1="277.649" x2="208.75" y2="254.37" gradientUnits="userSpaceOnUse">
<stop stop-color="#010101" stop-opacity="0"/>
<stop offset="0.95" stop-color="#010101"/>
</linearGradient>
<linearGradient id="paint13_linear_13_381" x1="312.115" y1="217.167" x2="478.779" y2="218.491" gradientUnits="userSpaceOnUse">
<stop stop-color="white" stop-opacity="0"/>
<stop offset="0.95" stop-color="white"/>
</linearGradient>
<clipPath id="clip0_13_381">
<rect width="529" height="399" fill="white"/>
</clipPath>
</defs>
</svg>
