<svg width="551" height="415" viewBox="0 0 551 415" fill="none" xmlns="http://www.w3.org/2000/svg">
<path opacity="0.24" d="M133.99 50.9692C116.887 76.7391 105.802 106.588 85.2215 129.694C66.6692 150.508 41.2043 164.82 25.1191 187.604C2.96568 218.966 3.45411 264.541 26.2864 295.416C35.6246 308.032 48.0673 318.116 57.4055 330.782C73.8881 353.036 81.1401 383.48 104.717 398.065C115.695 404.857 128.808 407.166 141.598 408.903C184.902 414.835 228.71 416.208 272.3 412.998C305.15 410.574 338.057 405.552 370.873 408.39C392.356 410.251 413.615 415.488 435.181 414.959C456.747 414.429 479.736 406.851 491.674 388.899C507.726 364.759 498.438 332.735 500.044 303.796C502.635 257.303 534.424 216.931 541.056 170.868C550.237 107.001 501.873 40.3302 438.277 29.1867C404.401 23.2551 369.176 31.3046 335.416 24.7855C314.463 20.7236 295 11.2015 274.502 5.29467C223.863 -9.29039 163.611 6.36187 133.99 50.9692Z" fill="#1E71FF"/>
<path d="M155.424 194.073C150.564 207.31 143.453 219.719 139.173 233.154C134.893 246.589 133.767 261.969 140.663 274.287C146.855 285.348 158.478 292.247 166.211 302.291C179.158 319.118 179.589 342.083 179.514 363.303C179.514 373.098 180.044 384.225 187.536 390.529C197.47 398.802 214.45 394.326 223.291 403.765C225.005 405.594 226.354 407.902 228.623 408.953C230.891 410.003 233.433 409.565 235.842 409.118L358.679 386.459C371.097 384.175 385.932 379.625 388.614 367.324C389.732 362.186 388.283 356.875 386.851 351.812L365.078 275.031C360.467 258.767 355.831 242.37 354.506 225.518C353.604 214.011 354.258 202.354 352.52 190.963C350.591 178.842 346.048 167.286 339.207 157.094C332.365 146.901 323.389 138.317 312.898 131.936C298.245 123.15 281.274 119.08 264.444 116.11C236.868 111.254 204.78 109.21 179.084 122.521C153.188 135.915 164.472 169.404 155.424 194.073Z" fill="url(#paint0_linear_13_442)"/>
<path d="M174.978 189.316L159.505 120.759C159.01 118.561 158.958 116.287 159.35 114.069C159.742 111.851 160.572 109.733 161.79 107.838C163.009 105.943 164.592 104.308 166.448 103.03C168.304 101.752 170.396 100.855 172.602 100.391L337.345 65.761C339.551 65.2969 341.827 65.2756 344.041 65.6983C346.256 66.121 348.364 66.9792 350.243 68.2231C352.123 69.467 353.736 71.0718 354.989 72.9441C356.243 74.8165 357.111 76.9192 357.545 79.1299L372.223 154.024L398.714 177.709C401.69 180.368 403.782 183.872 404.708 187.752C405.634 191.632 405.351 195.703 403.896 199.417L403.068 201.535L165.979 250.329L159.662 239.681C158.435 237.613 157.719 235.282 157.575 232.882C157.431 230.482 157.863 228.082 158.834 225.882L174.978 189.316Z" fill="#1E71FF"/>
<path d="M174.978 189.316L159.505 120.759C159.01 118.561 158.958 116.287 159.35 114.069C159.742 111.851 160.572 109.733 161.79 107.838C163.009 105.943 164.592 104.308 166.448 103.03C168.304 101.752 170.396 100.855 172.602 100.391L337.345 65.761C339.551 65.2969 341.827 65.2756 344.041 65.6983C346.256 66.121 348.364 66.9792 350.243 68.2231C352.123 69.467 353.736 71.0718 354.989 72.9441C356.243 74.8165 357.111 76.9192 357.545 79.1299L372.223 154.024L398.714 177.709C401.69 180.368 403.782 183.872 404.708 187.752C405.634 191.632 405.351 195.703 403.896 199.417L403.068 201.535L165.979 250.329L159.662 239.681C158.435 237.613 157.719 235.282 157.575 232.882C157.431 230.482 157.863 228.082 158.834 225.882L174.978 189.316Z" fill="url(#paint1_linear_13_442)"/>
<path d="M403.896 199.393L403.069 201.51L165.979 250.353L159.613 239.681C158.389 237.609 157.675 235.275 157.531 232.873C157.387 230.471 157.817 228.069 158.785 225.866L173.231 193.304L372.09 153.594L372.165 154.074L398.656 177.742C401.625 180.393 403.717 183.884 404.653 187.751C405.589 191.618 405.325 195.679 403.896 199.393Z" fill="url(#paint2_linear_13_442)"/>
<path d="M193.613 297.84L165.987 250.329L403.06 201.535L397.273 254.176L193.613 297.84Z" fill="#1E71FF"/>
<path d="M193.613 297.84L165.987 250.329L403.06 201.535L397.273 254.176L193.613 297.84Z" fill="url(#paint3_linear_13_442)"/>
<path d="M268.823 160.444C289.649 160.444 306.532 143.573 306.532 122.761C306.532 101.949 289.649 85.0781 268.823 85.0781C247.997 85.0781 231.115 101.949 231.115 122.761C231.115 143.573 247.997 160.444 268.823 160.444Z" fill="#1E71FF"/>
<path d="M268.823 160.444C289.649 160.444 306.532 143.573 306.532 122.761C306.532 101.949 289.649 85.0781 268.823 85.0781C247.997 85.0781 231.115 101.949 231.115 122.761C231.115 143.573 247.997 160.444 268.823 160.444Z" fill="url(#paint4_linear_13_442)"/>
<path d="M268.517 152.494C284.917 152.494 298.212 139.208 298.212 122.819C298.212 106.43 284.917 93.1442 268.517 93.1442C252.117 93.1442 238.822 106.43 238.822 122.819C238.822 139.208 252.117 152.494 268.517 152.494Z" fill="#1E71FF"/>
<path d="M268.757 135.162C276.109 135.162 282.069 129.206 282.069 121.859C282.069 114.512 276.109 108.557 268.757 108.557C261.405 108.557 255.445 114.512 255.445 121.859C255.445 129.206 261.405 135.162 268.757 135.162Z" fill="url(#paint5_linear_13_442)"/>
<path d="M263.989 125.21C267.463 125.21 270.28 122.395 270.28 118.922C270.28 115.45 267.463 112.635 263.989 112.635C260.514 112.635 257.697 115.45 257.697 118.922C257.697 122.395 260.514 125.21 263.989 125.21Z" fill="url(#paint6_linear_13_442)"/>
<path d="M204.855 178.098C213.903 178.098 221.238 170.768 221.238 161.726C221.238 152.684 213.903 145.354 204.855 145.354C195.807 145.354 188.472 152.684 188.472 161.726C188.472 170.768 195.807 178.098 204.855 178.098Z" fill="url(#paint7_linear_13_442)"/>
<path d="M212.028 113.711L183.499 118.867C179.679 119.557 177.143 123.211 177.833 127.028L178.591 131.213C179.281 135.03 182.938 137.565 186.758 136.874L215.286 131.719C219.106 131.029 221.643 127.375 220.952 123.558L220.195 119.373C219.504 115.556 215.848 113.021 212.028 113.711Z" fill="url(#paint8_linear_13_442)"/>
<path d="M341.607 81.599L316.024 85.8679C313.246 86.3315 311.371 88.9577 311.834 91.7338L315.433 113.268C315.897 116.044 318.525 117.918 321.303 117.455L346.885 113.186C349.663 112.722 351.539 110.096 351.075 107.32L347.477 85.7862C347.013 83.0101 344.385 81.1355 341.607 81.599Z" fill="#1E71FF"/>
<path d="M331.5 113.413C339.085 113.413 345.234 107.268 345.234 99.6881C345.234 92.1081 339.085 85.9634 331.5 85.9634C323.915 85.9634 317.766 92.1081 317.766 99.6881C317.766 107.268 323.915 113.413 331.5 113.413Z" fill="url(#paint9_linear_13_442)"/>
<path d="M343.388 142.302C348.665 142.302 352.942 138.027 352.942 132.755C352.942 127.482 348.665 123.208 343.388 123.208C338.112 123.208 333.835 127.482 333.835 132.755C333.835 138.027 338.112 142.302 343.388 142.302Z" fill="url(#paint10_linear_13_442)"/>
<path d="M222.679 90.6209L228.863 77.3761L287.972 65.1819L298.817 74.4889L222.679 90.6209Z" fill="#1E71FF"/>
<path d="M159.646 239.682L403.383 187.405L403.06 201.535L165.987 250.329L159.646 239.682Z" fill="url(#paint11_linear_13_442)"/>
<path d="M190.401 261.563L387.96 216.302L384.102 237.489L198.108 278.895L190.401 261.563Z" fill="url(#paint12_linear_13_442)"/>
<path d="M202.14 278.787C202.14 278.787 227.017 345.351 234.732 410.839L429.403 364.61C429.403 364.61 412.018 261.563 384.102 237.489L202.14 278.787Z" fill="white"/>
<path d="M376.428 239.433C376.428 239.433 407.059 289.17 410.61 338.402L244.708 373.073C244.708 373.073 224.094 284.901 210.517 277.364L376.428 239.433Z" fill="#1E71FF"/>
<path d="M376.428 239.433C376.428 239.433 407.059 289.17 410.61 338.402L244.708 373.073C244.708 373.073 224.094 284.901 210.517 277.364L376.428 239.433Z" fill="url(#paint13_linear_13_442)"/>
<path d="M355.508 349.62C351.808 350.703 348.298 351.332 344.531 352.176C344.117 349.214 342.254 336.019 341.84 333.057C341.666 331.8 341.526 330.385 342.296 329.384C342.786 328.831 343.41 328.412 344.109 328.168C345.594 327.429 347.207 326.979 348.86 326.844C350.16 326.844 350.351 327.953 350.64 329.012C351.568 332.437 354.001 346.385 355.508 349.62Z" fill="url(#paint14_linear_13_442)"/>
<path d="M295.836 283.925C295.331 288.127 296.35 292.346 297.318 296.466C298.975 303.141 300.26 309.902 301.168 316.718C301.606 320.391 301.863 324.164 303.08 327.622C304.297 331.08 306.632 334.414 310.059 335.82C312.484 336.813 315.2 336.763 317.799 336.482C320.438 336.173 323.057 335.723 325.647 335.134C328.468 334.625 331.209 333.749 333.802 332.528C336.415 331.291 338.514 329.181 339.737 326.563C340.764 324.131 340.723 321.392 340.565 318.753C339.856 306.315 337.226 294.062 332.767 282.427C332.241 280.897 331.518 279.443 330.615 278.101C329.161 276.337 327.417 274.834 325.457 273.658C323.487 272.318 321.45 270.953 319.116 270.473C317.26 270.182 315.367 270.227 313.528 270.605C305.423 271.946 296.962 274.527 295.836 283.925Z" fill="#606161"/>
<path d="M295.836 283.925C295.331 288.127 296.35 292.346 297.318 296.466C298.975 303.141 300.26 309.902 301.168 316.718C301.606 320.391 301.863 324.164 303.08 327.622C304.297 331.08 306.632 334.414 310.059 335.82C312.484 336.813 315.2 336.763 317.799 336.482C320.438 336.173 323.057 335.723 325.647 335.134C328.468 334.625 331.209 333.749 333.802 332.528C336.415 331.291 338.514 329.181 339.737 326.563C340.764 324.131 340.723 321.392 340.565 318.753C339.856 306.315 337.226 294.062 332.767 282.427C332.241 280.897 331.518 279.443 330.615 278.101C329.161 276.337 327.417 274.834 325.457 273.658C323.487 272.318 321.45 270.953 319.116 270.473C317.26 270.182 315.367 270.227 313.528 270.605C305.423 271.946 296.962 274.527 295.836 283.925Z" fill="url(#paint15_linear_13_442)"/>
<path d="M334.034 305.666L333.578 307.593C332.968 306.17 332.569 304.665 332.394 303.126L331.484 297.476C331.187 294.99 330.584 292.55 329.687 290.212C328.772 287.858 327.022 285.923 324.77 284.777C321.839 283.461 318.437 284.107 315.307 284.777C312.41 285.422 309.314 286.208 307.368 288.45C306.369 289.747 305.604 291.208 305.108 292.768C304.391 294.361 303.94 296.06 303.775 297.798C303.774 298.982 303.91 300.162 304.181 301.314C305.373 307.246 306.979 313.202 306.598 319.233C306.345 321.214 306.265 323.212 306.358 325.206C306.357 325.378 306.39 325.549 306.455 325.708C306.521 325.867 306.617 326.012 306.739 326.133C306.985 326.289 307.276 326.362 307.567 326.34C309.909 326.369 312.25 326.261 314.579 326.017L327.08 324.991C328.491 324.948 329.887 324.688 331.219 324.222C332.113 323.858 332.924 323.304 333.827 322.931C336.765 321.707 338.082 319.713 336.923 316.636C335.678 313.059 334.712 309.392 334.034 305.666Z" fill="url(#paint16_linear_13_442)"/>
<path d="M307.12 322.41C303.814 324.133 300.969 326.622 298.822 329.669C296.676 332.716 295.292 336.232 294.785 339.924C299.222 341.578 304.222 343.754 305.547 348.288C305.704 348.85 308.031 359.53 308.577 359.77C308.904 359.866 309.252 359.866 309.579 359.77C321.947 357.636 334.202 354.969 346.344 351.77C345.88 349.289 343.239 336.747 342.776 334.249C342.689 333.89 342.689 333.515 342.776 333.157C342.948 332.752 343.236 332.406 343.604 332.164C345.948 330.265 348.439 328.556 351.054 327.051C349.263 324.307 347.108 321.819 344.647 319.655C342.362 317.645 331.964 314.501 316.64 318.001C313.097 318.82 310.282 320.797 307.12 322.41Z" fill="white"/>
<path d="M313.287 316.354C312.667 319.258 311.955 322.402 313.238 325.082C314.62 327.978 318.246 329.459 321.384 328.764C322.952 328.362 324.396 327.581 325.592 326.491C326.787 325.4 327.696 324.033 328.239 322.509C328.959 320.844 329.006 318.964 328.371 317.264C327.849 316.106 326.906 315.18 326.351 314.038C325.184 311.664 325.821 308.627 324.348 306.427C323.155 304.64 320.862 303.945 318.718 303.804C317.431 303.686 316.137 303.924 314.976 304.491C312.865 305.666 312.865 307.37 313.436 309.331C313.971 311.648 313.92 314.062 313.287 316.354Z" fill="url(#paint17_linear_13_442)"/>
<path d="M315.647 315.635C316.831 316.739 318.374 317.38 319.993 317.438C320.974 317.498 321.951 317.274 322.808 316.793C323.368 316.426 323.852 315.954 324.232 315.403C324.848 314.532 325.276 313.542 325.489 312.497C325.701 311.451 325.693 310.373 325.465 309.331C325.346 308.605 324.977 307.944 324.422 307.461C323.965 307.165 323.442 306.986 322.899 306.94C321.453 306.777 319.989 306.939 318.614 307.414C317.239 307.889 315.988 308.666 314.951 309.686C313.097 311.473 313.908 313.964 315.647 315.635Z" fill="url(#paint18_linear_13_442)"/>
<path d="M307.741 308.776C310.158 311.49 313.362 313.633 316.914 313.947C318.943 314.082 320.97 313.642 322.761 312.678C324.552 311.713 326.035 310.264 327.038 308.495C327.867 306.889 328.461 305.173 328.802 303.399C329.778 299.563 329.95 295.566 329.307 291.66C328.537 287.788 326.45 284.074 323.18 282.038C320.771 280.632 318.002 279.965 315.216 280.119C311.518 280.132 307.945 281.457 305.133 283.858C303.449 285.394 302.237 287.377 301.64 289.575C301.052 291.792 301.582 293.331 301.962 295.441C302.881 300.47 304.305 304.921 307.741 308.776Z" fill="url(#paint19_linear_13_442)"/>
<path d="M300.348 296.21C300.371 296.43 300.46 296.638 300.605 296.806C300.76 296.913 300.939 296.982 301.126 297.006C301.313 297.031 301.503 297.01 301.681 296.946C303.726 296.544 305.742 296.007 307.716 295.341C307.743 294.054 307.632 292.767 307.385 291.503C308.036 292.471 308.525 293.538 308.834 294.663C311.821 293.735 314.862 292.989 317.94 292.429C317.304 291.396 316.945 290.216 316.897 289.004C317.224 290.083 317.755 291.088 318.462 291.966C318.598 292.153 318.78 292.301 318.991 292.396C319.197 292.431 319.407 292.422 319.608 292.369C319.809 292.316 319.997 292.221 320.159 292.09C322.131 290.922 324.353 290.239 326.641 290.096L326.442 288.615C327.069 289.31 327.624 290.067 328.098 290.874C328.446 290.486 328.869 290.173 329.341 289.952C329.813 289.732 330.325 289.609 330.846 289.592L328.909 284.719C328.581 283.479 327.959 282.336 327.094 281.388C326.229 280.44 325.148 279.716 323.942 279.275C322.396 278.422 320.765 277.735 319.074 277.224C316.174 276.518 313.128 276.723 310.349 277.811C307.586 278.912 305.091 280.59 303.03 282.733C302.241 283.471 301.601 284.353 301.143 285.331C300.721 286.324 300.903 287.275 300.712 288.285C300.149 290.998 299.752 293.447 300.348 296.21Z" fill="#606161"/>
<path d="M300.348 296.21C300.371 296.43 300.46 296.638 300.605 296.806C300.76 296.913 300.939 296.982 301.126 297.006C301.313 297.031 301.503 297.01 301.681 296.946C303.726 296.544 305.742 296.007 307.716 295.341C307.743 294.054 307.632 292.767 307.385 291.503C308.036 292.471 308.525 293.538 308.834 294.663C311.821 293.735 314.862 292.989 317.94 292.429C317.304 291.396 316.945 290.216 316.897 289.004C317.224 290.083 317.755 291.088 318.462 291.966C318.598 292.153 318.78 292.301 318.991 292.396C319.197 292.431 319.407 292.422 319.608 292.369C319.809 292.316 319.997 292.221 320.159 292.09C322.131 290.922 324.353 290.239 326.641 290.096L326.442 288.615C327.069 289.31 327.624 290.067 328.098 290.874C328.446 290.486 328.869 290.173 329.341 289.952C329.813 289.732 330.325 289.609 330.846 289.592L328.909 284.719C328.581 283.479 327.959 282.336 327.094 281.388C326.229 280.44 325.148 279.716 323.942 279.275C322.396 278.422 320.765 277.735 319.074 277.224C316.174 276.518 313.128 276.723 310.349 277.811C307.586 278.912 305.091 280.59 303.03 282.733C302.241 283.471 301.601 284.353 301.143 285.331C300.721 286.324 300.903 287.275 300.712 288.285C300.149 290.998 299.752 293.447 300.348 296.21Z" fill="url(#paint20_linear_13_442)"/>
<path d="M304.91 353.756C304.371 356.643 302.302 359.464 299.396 359.928C295.671 360.515 292.541 357.255 290.348 354.186C284.362 345.831 281.879 333.686 277.201 329.21C275.496 327.556 274.146 321.417 276.142 320.11C277.152 319.448 277.383 318.621 277.59 317.43C277.635 317.074 277.577 316.712 277.425 316.387C276.531 314.137 274.544 309.728 274.941 309.562C275.339 309.397 275.769 308.735 276.042 308.934C277.971 310.307 279.652 313.964 280.877 315.99C280.19 313.31 282.334 305.385 283.758 307.759C283.998 308.148 283.601 317.827 285.099 318.762C285.529 319.027 286.059 319.109 286.473 319.415C287.417 320.119 287.301 321.525 287.169 322.724C286.573 329.392 290.232 335.614 293.791 341.314C293.7 340.329 295.182 340.155 296.126 340.486C298.502 341.239 302.542 342.786 303.999 344.97C305.456 347.154 305.357 351.365 304.91 353.756Z" fill="url(#paint21_linear_13_442)"/>
<defs>
<linearGradient id="paint0_linear_13_442" x1="162.8" y1="382.132" x2="610.232" y2="-125.937" gradientUnits="userSpaceOnUse">
<stop stop-color="#010101" stop-opacity="0"/>
<stop offset="0.95" stop-color="#010101"/>
</linearGradient>
<linearGradient id="paint1_linear_13_442" x1="280.778" y1="191.93" x2="277.57" y2="87.2785" gradientUnits="userSpaceOnUse">
<stop stop-color="white" stop-opacity="0"/>
<stop offset="0.95" stop-color="white"/>
</linearGradient>
<linearGradient id="paint2_linear_13_442" x1="331.74" y1="225.444" x2="141.598" y2="154.087" gradientUnits="userSpaceOnUse">
<stop stop-color="white" stop-opacity="0"/>
<stop offset="0.95" stop-color="white"/>
</linearGradient>
<linearGradient id="paint3_linear_13_442" x1="282.408" y1="173.664" x2="287.22" y2="293.083" gradientUnits="userSpaceOnUse">
<stop stop-color="#010101" stop-opacity="0"/>
<stop offset="0.95" stop-color="#010101"/>
</linearGradient>
<linearGradient id="paint4_linear_13_442" x1="231.115" y1="122.761" x2="306.532" y2="122.761" gradientUnits="userSpaceOnUse">
<stop stop-color="#010101" stop-opacity="0"/>
<stop offset="0.95" stop-color="#010101"/>
</linearGradient>
<linearGradient id="paint5_linear_13_442" x1="259.642" y1="104.073" x2="287.238" y2="158.019" gradientUnits="userSpaceOnUse">
<stop stop-color="#010101" stop-opacity="0"/>
<stop offset="0.95" stop-color="#010101"/>
</linearGradient>
<linearGradient id="paint6_linear_13_442" x1="259.676" y1="110.517" x2="272.725" y2="136.013" gradientUnits="userSpaceOnUse">
<stop stop-color="white" stop-opacity="0"/>
<stop offset="0.95" stop-color="white"/>
</linearGradient>
<linearGradient id="paint7_linear_13_442" x1="188.472" y1="161.726" x2="221.238" y2="161.726" gradientUnits="userSpaceOnUse">
<stop stop-color="white" stop-opacity="0"/>
<stop offset="0.95" stop-color="white"/>
</linearGradient>
<linearGradient id="paint8_linear_13_442" x1="194.059" y1="102.299" x2="208.701" y2="181.987" gradientUnits="userSpaceOnUse">
<stop stop-color="#010101" stop-opacity="0"/>
<stop offset="0.95" stop-color="#010101"/>
</linearGradient>
<linearGradient id="paint9_linear_13_442" x1="317.766" y1="99.6881" x2="345.234" y2="99.6881" gradientUnits="userSpaceOnUse">
<stop stop-color="#010101" stop-opacity="0"/>
<stop offset="0.95" stop-color="#010101"/>
</linearGradient>
<linearGradient id="paint10_linear_13_442" x1="333.835" y1="132.755" x2="352.942" y2="132.755" gradientUnits="userSpaceOnUse">
<stop stop-color="#010101" stop-opacity="0"/>
<stop offset="0.95" stop-color="#010101"/>
</linearGradient>
<linearGradient id="paint11_linear_13_442" x1="159.646" y1="218.867" x2="403.375" y2="218.867" gradientUnits="userSpaceOnUse">
<stop stop-color="white" stop-opacity="0"/>
<stop offset="0.95" stop-color="white"/>
</linearGradient>
<linearGradient id="paint12_linear_13_442" x1="190.401" y1="247.599" x2="387.96" y2="247.599" gradientUnits="userSpaceOnUse">
<stop stop-color="#010101" stop-opacity="0"/>
<stop offset="0.95" stop-color="#010101"/>
</linearGradient>
<linearGradient id="paint13_linear_13_442" x1="308.651" y1="295.49" x2="288.569" y2="203.043" gradientUnits="userSpaceOnUse">
<stop stop-color="#010101" stop-opacity="0"/>
<stop offset="0.95" stop-color="#010101"/>
</linearGradient>
<linearGradient id="paint14_linear_13_442" x1="341.98" y1="340.469" x2="352.992" y2="338.086" gradientUnits="userSpaceOnUse">
<stop stop-color="#E5C6D6"/>
<stop offset="0.42" stop-color="#EAD4D0"/>
<stop offset="1" stop-color="#F0E9CB"/>
</linearGradient>
<linearGradient id="paint15_linear_13_442" x1="295.704" y1="303.49" x2="340.648" y2="303.49" gradientUnits="userSpaceOnUse">
<stop stop-color="#010101" stop-opacity="0"/>
<stop offset="0.95" stop-color="#010101"/>
</linearGradient>
<linearGradient id="paint16_linear_13_442" x1="320.523" y1="339.005" x2="320.523" y2="298.411" gradientUnits="userSpaceOnUse">
<stop stop-color="#010101" stop-opacity="0"/>
<stop offset="0.95" stop-color="#010101"/>
</linearGradient>
<linearGradient id="paint17_linear_13_442" x1="311.492" y1="317.974" x2="327.82" y2="314.441" gradientUnits="userSpaceOnUse">
<stop stop-color="#E5C6D6"/>
<stop offset="0.42" stop-color="#EAD4D0"/>
<stop offset="1" stop-color="#F0E9CB"/>
</linearGradient>
<linearGradient id="paint18_linear_13_442" x1="320.923" y1="321.556" x2="310.705" y2="232.65" gradientUnits="userSpaceOnUse">
<stop stop-color="#010101" stop-opacity="0"/>
<stop offset="0.95" stop-color="#010101"/>
</linearGradient>
<linearGradient id="paint19_linear_13_442" x1="301.539" y1="297.415" x2="329.751" y2="296.676" gradientUnits="userSpaceOnUse">
<stop stop-color="#E5C6D6"/>
<stop offset="0.42" stop-color="#EAD4D0"/>
<stop offset="1" stop-color="#F0E9CB"/>
</linearGradient>
<linearGradient id="paint20_linear_13_442" x1="300.05" y1="286.903" x2="330.797" y2="286.903" gradientUnits="userSpaceOnUse">
<stop stop-color="#010101" stop-opacity="0"/>
<stop offset="0.95" stop-color="#010101"/>
</linearGradient>
<linearGradient id="paint21_linear_13_442" x1="274.867" y1="333.661" x2="305.166" y2="333.661" gradientUnits="userSpaceOnUse">
<stop stop-color="#E5C6D6"/>
<stop offset="0.42" stop-color="#EAD4D0"/>
<stop offset="1" stop-color="#F0E9CB"/>
</linearGradient>
</defs>
</svg>
