<svg width="532" height="401" viewBox="0 0 532 401" fill="none" xmlns="http://www.w3.org/2000/svg">
<g clip-path="url(#clip0_13_295)">
<path opacity="0.24" d="M506.41 304.966C506.173 307.565 505.71 310.138 505.028 312.656C503.482 318.475 501.142 324.054 498.075 329.235C480.32 360.227 445.582 378.131 410.587 385.416C375.591 392.702 339.481 391.136 303.758 392.785C255.603 394.995 207.521 403.118 159.31 400.521C136.456 399.248 113.8 395.578 91.7132 389.57C-14.7652 389.57 37.286 226.947 43.4102 165.294C46.0532 138.732 49.1384 110.89 64.297 88.9238C82.2275 62.896 113.972 49.9281 145.035 44.2915C176.098 38.6549 208.046 38.9404 238.971 32.4657C289.429 21.8741 338.21 -6.70498 389.083 1.43678C439.025 9.42196 479.546 56.9831 479.519 107.547C479.519 143.043 463.411 178.336 472.658 213.684C480.697 244.391 509.541 271.579 506.41 304.966Z" fill="#1E71FF"/>
<path opacity="0.24" d="M179.524 96.8906C168.022 98.8892 156.455 101.247 145.837 106.101C137.889 109.72 130.641 114.675 123.485 119.686C101.917 134.8 79.8608 152.142 70.808 176.881C67.009 187.287 65.761 198.452 67.1686 209.44C68.5763 220.429 72.5986 230.919 78.8981 240.031C85.1976 249.143 93.5904 256.611 103.373 261.809C113.155 267.007 124.04 269.782 135.117 269.903C128.522 264.549 123.107 257.889 119.21 250.341C115.314 242.793 113.02 234.521 112.474 226.044C111.929 217.567 113.142 209.069 116.039 201.084C118.935 193.099 123.452 185.799 129.306 179.644C136.231 172.358 144.851 166.869 153.886 162.458C182.766 148.366 215.818 145.069 247.931 146.331C280.044 147.592 292.32 139.994 324.369 142.647C317.213 124.834 327.988 120.791 317.812 104.507C302.856 80.5611 286.721 84.5951 261.202 86.8239C233.869 89.3015 206.554 92.1935 179.524 96.8906Z" fill="#1E71FF"/>
<path d="M174.321 92.8474C162.819 94.846 151.252 97.2038 140.633 102.058C132.695 105.677 125.438 110.632 118.291 115.642C96.7231 130.765 74.6667 148.108 65.6231 172.847C61.8243 183.252 60.5762 194.417 61.9834 205.404C63.3906 216.392 67.4121 226.881 73.7105 235.993C80.009 245.105 88.4006 252.574 98.1815 257.772C107.962 262.97 118.847 265.747 129.923 265.869C123.335 260.516 117.925 253.858 114.033 246.314C110.141 238.77 107.85 230.502 107.306 222.031C106.761 213.559 107.973 205.066 110.867 197.086C113.761 189.105 118.273 181.809 124.121 175.656C131.037 168.37 139.657 162.881 148.691 158.47C177.581 144.378 210.633 141.081 242.746 142.343C274.859 143.604 293.508 147.077 325.529 149.711C318.374 131.898 322.766 116.785 312.636 100.501C297.68 76.5546 281.555 80.5887 256.035 82.8175C228.665 85.2582 201.36 88.1502 174.321 92.8474Z" fill="url(#paint0_linear_13_295)"/>
<path opacity="0.24" d="M505.065 312.656C503.519 318.475 501.179 324.054 498.112 329.235C480.357 360.227 445.619 378.131 410.623 385.416C375.628 392.702 339.518 391.136 303.795 392.785C255.603 394.995 207.521 403.118 159.31 400.521C136.456 399.248 113.8 395.578 91.7132 389.57C76.9138 385.536 46.3296 380.277 37.3781 366.545C31.7788 357.989 30.8579 341.954 30.6737 328.452C34.0259 328.977 37.3413 329.769 40.2698 330.045C50.1791 330.966 60.2081 331.067 70.1449 331.371C91.1852 332.053 112.241 332.504 133.312 332.725C217.184 333.616 300.989 330.853 384.727 324.436C424.916 321.342 465.029 317.415 505.065 312.656Z" fill="#1E71FF"/>
<path d="M160.203 266.808H147.669V344.137H160.203V266.808Z" fill="#1E71FF"/>
<path d="M160.203 266.808H147.669V344.137H160.203V266.808Z" fill="url(#paint1_linear_13_295)"/>
<path d="M189.682 243.074V273.716H103.787V243.074C103.788 240.976 104.202 238.899 105.007 236.961C105.811 235.023 106.989 233.263 108.474 231.781C109.958 230.298 111.72 229.123 113.659 228.322C115.598 227.521 117.676 227.11 119.774 227.113H173.704C177.938 227.113 182 228.794 184.996 231.786C187.992 234.779 189.677 238.839 189.682 243.074Z" fill="#1E71FF"/>
<path d="M119.839 229.774C121.653 229.774 123.449 230.132 125.125 230.826C126.801 231.52 128.324 232.538 129.607 233.821C130.889 235.104 131.907 236.627 132.601 238.303C133.295 239.979 133.653 241.775 133.653 243.59V273.541H106.025V243.608C106.022 241.792 106.378 239.994 107.071 238.316C107.764 236.637 108.781 235.112 110.064 233.827C111.347 232.542 112.871 231.523 114.548 230.828C116.225 230.132 118.023 229.774 119.839 229.774Z" fill="url(#paint2_linear_13_295)"/>
<path d="M189.691 243.074V273.707H136.765V241.278C135.181 232.805 129.214 228.909 124.314 227.113H173.704C177.94 227.11 182.004 228.79 185.002 231.783C188 234.776 189.687 238.837 189.691 243.074Z" fill="url(#paint3_linear_13_295)"/>
<path d="M134.564 269.323H78.4057C77.1901 269.323 76.2047 270.306 76.2047 271.519C76.2047 272.732 77.1901 273.716 78.4057 273.716H134.564C135.78 273.716 136.765 272.732 136.765 271.519C136.765 270.306 135.78 269.323 134.564 269.323Z" fill="#1E71FF"/>
<path d="M134.564 269.323H78.4057C77.1901 269.323 76.2047 270.306 76.2047 271.519C76.2047 272.732 77.1901 273.716 78.4057 273.716H134.564C135.78 273.716 136.765 272.732 136.765 271.519C136.765 270.306 135.78 269.323 134.564 269.323Z" fill="url(#paint4_linear_13_295)"/>
<path opacity="0.24" d="M120.732 337.358C113.429 338.666 106.19 340.351 98.8136 341.042C94.0247 341.503 88.7385 341.742 85.2666 345.076C84.4405 345.785 83.8923 346.764 83.7194 347.839C83.5261 350.142 85.9297 351.753 88.0847 352.601C94.3747 355.087 101.199 355.797 107.949 356.23C118.927 356.92 129.941 356.939 140.956 356.948H173.741C183.429 356.948 194.167 356.552 201.102 349.801C202.566 348.535 203.559 346.812 203.92 344.91C204.307 341.834 201.967 338.933 199.14 337.643C194.25 335.415 186.929 335.875 181.642 335.286C174.674 334.567 167.703 334.156 160.728 334.052C147.322 333.894 133.93 335.001 120.732 337.358Z" fill="#1E71FF"/>
<path d="M166.696 247.725C166.576 248.121 166.226 249.309 166.125 249.742L164.955 254.08C164.898 254.271 164.87 254.47 164.872 254.669C164.866 254.738 164.875 254.806 164.899 254.87C164.923 254.934 164.962 254.992 165.011 255.039C165.061 255.086 165.121 255.121 165.186 255.142C165.251 255.162 165.32 255.168 165.388 255.158C165.839 255.12 166.267 254.943 166.613 254.651C167.128 254.188 167.536 253.619 167.81 252.983C168.083 252.347 168.215 251.659 168.197 250.967C168.218 250.127 168.023 249.296 167.629 248.554C167.236 247.811 166.657 247.183 165.95 246.73C164.876 246.154 163.668 245.871 162.45 245.911C158.324 245.911 155.433 248.674 155.433 252.514C155.433 256.355 158.039 258.685 161.98 258.685C162.994 258.685 164.002 258.539 164.973 258.252C165.749 258.013 166.487 257.666 167.165 257.221L168.353 258.943C167.596 259.431 166.775 259.813 165.913 260.076C164.569 260.484 163.173 260.692 161.769 260.693C160.593 260.761 159.416 260.59 158.308 260.191C157.2 259.792 156.185 259.174 155.322 258.372C154.58 257.606 153.997 256.701 153.608 255.708C153.219 254.715 153.032 253.654 153.057 252.588C153.027 251.464 153.223 250.345 153.633 249.298C154.043 248.251 154.658 247.297 155.442 246.491C156.393 245.575 157.522 244.864 158.76 244.403C159.997 243.942 161.316 243.741 162.634 243.811C167.193 243.811 170.435 246.739 170.435 250.829C170.453 251.696 170.3 252.558 169.984 253.366C169.668 254.174 169.195 254.911 168.593 255.535C168.115 256.033 167.544 256.431 166.911 256.706C166.279 256.981 165.598 257.128 164.909 257.138C164.588 257.16 164.267 257.101 163.974 256.968C163.681 256.834 163.427 256.63 163.233 256.373C163.125 256.192 163.064 255.986 163.058 255.775C162.748 256.171 162.348 256.489 161.892 256.702C161.436 256.914 160.936 257.017 160.433 257C158.499 257 157.274 255.554 157.274 253.316C157.274 250.018 159.439 247.283 162.036 247.283C162.466 247.227 162.903 247.301 163.291 247.496C163.679 247.692 163.998 247.999 164.209 248.379L164.402 247.688L166.696 247.725ZM162.671 253.537C163.14 252.599 163.404 251.572 163.445 250.525C163.445 249.724 163.003 249.171 162.312 249.171C161.893 249.205 161.493 249.355 161.154 249.604C160.816 249.853 160.554 250.191 160.396 250.58C159.918 251.485 159.651 252.486 159.614 253.509C159.614 254.55 160.01 255.093 160.756 255.093C161.502 255.093 162.155 254.531 162.671 253.537Z" fill="#1E71FF"/>
<path d="M445.38 108.302L325.529 149.757L307.203 110.218L445.38 108.302Z" fill="#1E71FF"/>
<path d="M445.38 108.302L325.529 149.757L307.203 110.218L445.38 108.302Z" fill="url(#paint5_linear_13_295)"/>
<path d="M313.308 123.895L417.696 116.959L445.38 108.302L307.203 110.218L313.308 123.895Z" fill="url(#paint6_linear_13_295)"/>
<path d="M283 66.4419L453.079 109.564L305.131 91.9079L283 66.4419Z" fill="#1E71FF"/>
<path d="M205.946 117.033L305.131 91.9079L453.079 109.564L205.946 117.033Z" fill="#1E71FF"/>
<path d="M283 66.4419L453.079 109.564L305.131 91.9079L283 66.4419Z" fill="url(#paint7_linear_13_295)"/>
<path d="M235.135 132.439L199.502 131.35L198.831 153.315L234.464 154.404L235.135 132.439Z" fill="#1E71FF"/>
<path d="M234.476 154.399L198.845 153.312L199.509 131.346L235.839 132.165L234.476 154.399Z" fill="url(#paint8_linear_13_295)"/>
<path d="M199.509 131.346L216.831 150.033L235.268 132.764L199.509 131.346Z" fill="url(#paint9_linear_13_295)"/>
<path d="M171.143 116.249L138.983 100.866L129.502 120.691L161.663 136.073L171.143 116.249Z" fill="#1E71FF"/>
<path d="M161.658 136.08L129.499 120.69L138.985 100.869L171.881 116.296L161.658 136.08Z" fill="url(#paint10_linear_13_295)"/>
<path d="M138.985 100.869L147.282 124.963L171.116 116.6L138.985 100.869Z" fill="url(#paint11_linear_13_295)"/>
<path d="M121.244 166.536L99.1199 174.189L103.837 187.829L125.961 180.175L121.244 166.536Z" fill="#1E71FF"/>
<path d="M125.963 180.187L103.833 187.841L99.1176 174.2L121.607 166.224L125.963 180.187Z" fill="url(#paint12_linear_13_295)"/>
<path d="M99.1176 174.2L114.11 181.624L121.395 166.722L99.1176 174.2Z" fill="url(#paint13_linear_13_295)"/>
<path d="M85.5068 152.021L63.8962 159.497L68.5022 172.814L90.1127 165.338L85.5068 152.021Z" fill="#1E71FF"/>
<path d="M90.1016 165.35L68.4965 172.819L63.8918 159.501L85.8469 151.709L90.1016 165.35Z" fill="url(#paint14_linear_13_295)"/>
<path d="M63.8918 159.501L78.5347 166.759L85.6443 152.197L63.8918 159.501Z" fill="url(#paint15_linear_13_295)"/>
<path d="M91.4838 215.178L74.7286 209.734L71.3734 220.061L88.1286 225.506L91.4838 215.178Z" fill="#1E71FF"/>
<path d="M88.1124 225.501L71.3606 220.067L74.722 209.733L91.833 215.149L88.1124 225.501Z" fill="url(#paint16_linear_13_295)"/>
<path d="M74.7219 209.733L80.3488 220.997L91.4829 215.351L74.7219 209.733Z" fill="url(#paint17_linear_13_295)"/>
<path d="M241.499 69.7552L211.855 81.4156L219.041 99.6891L248.686 88.0286L241.499 69.7552Z" fill="#1E71FF"/>
<path d="M248.686 88.0397L219.042 99.6997L211.849 81.4268L241.973 69.3063L248.686 88.0397Z" fill="url(#paint18_linear_13_295)"/>
<path d="M211.849 81.4268L232.662 90.6738L241.715 69.997L211.849 81.4268Z" fill="url(#paint19_linear_13_295)"/>
<path d="M364.061 70.2517L325.586 66.4653L323.252 90.1865L361.727 93.9729L364.061 70.2517Z" fill="#1E71FF"/>
<path d="M361.74 93.9618L323.255 90.1764L325.594 66.4511L364.835 70.0062L361.74 93.9618Z" fill="url(#paint20_linear_13_295)"/>
<path d="M325.594 66.4511L342.972 87.9384L364.181 70.6049L325.594 66.4511Z" fill="url(#paint21_linear_13_295)"/>
<path d="M205.946 117.033L305.131 91.9079L453.079 109.564L205.946 117.033Z" fill="url(#paint22_linear_13_295)"/>
</g>
<defs>
<linearGradient id="paint0_linear_13_295" x1="204.5" y1="232.206" x2="160.601" y2="9.26684" gradientUnits="userSpaceOnUse">
<stop stop-color="white" stop-opacity="0"/>
<stop offset="0.95" stop-color="white"/>
</linearGradient>
<linearGradient id="paint1_linear_13_295" x1="154.263" y1="334.024" x2="153.324" y2="251.575" gradientUnits="userSpaceOnUse">
<stop stop-color="#010101" stop-opacity="0"/>
<stop offset="0.95" stop-color="#010101"/>
</linearGradient>
<linearGradient id="paint2_linear_13_295" x1="106.006" y1="251.667" x2="133.671" y2="251.667" gradientUnits="userSpaceOnUse">
<stop stop-color="#010101" stop-opacity="0"/>
<stop offset="0.95" stop-color="#010101"/>
</linearGradient>
<linearGradient id="paint3_linear_13_295" x1="158.417" y1="226.422" x2="153.397" y2="311.671" gradientUnits="userSpaceOnUse">
<stop stop-color="#010101" stop-opacity="0"/>
<stop offset="0.95" stop-color="#010101"/>
</linearGradient>
<linearGradient id="paint4_linear_13_295" x1="106.172" y1="266.247" x2="106.798" y2="276.912" gradientUnits="userSpaceOnUse">
<stop stop-color="#010101" stop-opacity="0"/>
<stop offset="0.95" stop-color="#010101"/>
</linearGradient>
<linearGradient id="paint5_linear_13_295" x1="370.793" y1="146.515" x2="384.223" y2="55.5558" gradientUnits="userSpaceOnUse">
<stop stop-color="white" stop-opacity="0"/>
<stop offset="0.95" stop-color="white"/>
</linearGradient>
<linearGradient id="paint6_linear_13_295" x1="375.379" y1="122.145" x2="381.449" y2="36.0853" gradientUnits="userSpaceOnUse">
<stop stop-color="#010101" stop-opacity="0"/>
<stop offset="0.95" stop-color="#010101"/>
</linearGradient>
<linearGradient id="paint7_linear_13_295" x1="371.944" y1="58.558" x2="362.411" y2="130.461" gradientUnits="userSpaceOnUse">
<stop stop-color="white" stop-opacity="0"/>
<stop offset="0.95" stop-color="white"/>
</linearGradient>
<linearGradient id="paint8_linear_13_295" x1="226.414" y1="79.8791" x2="214.793" y2="157.576" gradientUnits="userSpaceOnUse">
<stop stop-color="white" stop-opacity="0"/>
<stop offset="0.95" stop-color="white"/>
</linearGradient>
<linearGradient id="paint9_linear_13_295" x1="-746.407" y1="-1036.16" x2="-696.416" y2="-975.568" gradientUnits="userSpaceOnUse">
<stop stop-color="white" stop-opacity="0"/>
<stop offset="0.95" stop-color="white"/>
</linearGradient>
<linearGradient id="paint10_linear_13_295" x1="184.379" y1="64.6718" x2="142.384" y2="131.054" gradientUnits="userSpaceOnUse">
<stop stop-color="white" stop-opacity="0"/>
<stop offset="0.95" stop-color="white"/>
</linearGradient>
<linearGradient id="paint11_linear_13_295" x1="-254.938" y1="-1349.17" x2="-233.664" y2="-1273.55" gradientUnits="userSpaceOnUse">
<stop stop-color="white" stop-opacity="0"/>
<stop offset="0.95" stop-color="white"/>
</linearGradient>
<linearGradient id="paint12_linear_13_295" x1="103.609" y1="136.303" x2="114.628" y2="186.703" gradientUnits="userSpaceOnUse">
<stop stop-color="white" stop-opacity="0"/>
<stop offset="0.95" stop-color="white"/>
</linearGradient>
<linearGradient id="paint13_linear_13_295" x1="-753.992" y1="-321.594" x2="-709.161" y2="-296.068" gradientUnits="userSpaceOnUse">
<stop stop-color="white" stop-opacity="0"/>
<stop offset="0.95" stop-color="white"/>
</linearGradient>
<linearGradient id="paint14_linear_13_295" x1="68.2791" y1="122.503" x2="79.0299" y2="171.718" gradientUnits="userSpaceOnUse">
<stop stop-color="white" stop-opacity="0"/>
<stop offset="0.95" stop-color="white"/>
</linearGradient>
<linearGradient id="paint15_linear_13_295" x1="-769.225" y1="-324.664" x2="-725.446" y2="-299.748" gradientUnits="userSpaceOnUse">
<stop stop-color="white" stop-opacity="0"/>
<stop offset="0.95" stop-color="white"/>
</linearGradient>
<linearGradient id="paint16_linear_13_295" x1="94.6111" y1="189.059" x2="78.3578" y2="224.308" gradientUnits="userSpaceOnUse">
<stop stop-color="white" stop-opacity="0"/>
<stop offset="0.95" stop-color="white"/>
</linearGradient>
<linearGradient id="paint17_linear_13_295" x1="-212.465" y1="-474.838" x2="-197.131" y2="-439.18" gradientUnits="userSpaceOnUse">
<stop stop-color="white" stop-opacity="0"/>
<stop offset="0.95" stop-color="white"/>
</linearGradient>
<linearGradient id="paint18_linear_13_295" x1="215.812" y1="29.6551" x2="233.645" y2="97.5401" gradientUnits="userSpaceOnUse">
<stop stop-color="white" stop-opacity="0"/>
<stop offset="0.95" stop-color="white"/>
</linearGradient>
<linearGradient id="paint19_linear_13_295" x1="-976.015" y1="-544.141" x2="-913.625" y2="-511.995" gradientUnits="userSpaceOnUse">
<stop stop-color="white" stop-opacity="0"/>
<stop offset="0.95" stop-color="white"/>
</linearGradient>
<linearGradient id="paint20_linear_13_295" x1="358.474" y1="12.7702" x2="340.208" y2="95.9999" gradientUnits="userSpaceOnUse">
<stop stop-color="white" stop-opacity="0"/>
<stop offset="0.95" stop-color="white"/>
</linearGradient>
<linearGradient id="paint21_linear_13_295" x1="-612.534" y1="-1266.12" x2="-562.869" y2="-1196.9" gradientUnits="userSpaceOnUse">
<stop stop-color="white" stop-opacity="0"/>
<stop offset="0.95" stop-color="white"/>
</linearGradient>
<linearGradient id="paint22_linear_13_295" x1="330.171" y1="83.3793" x2="328.439" y2="162.218" gradientUnits="userSpaceOnUse">
<stop stop-color="white" stop-opacity="0"/>
<stop offset="0.39" stop-color="white"/>
</linearGradient>
<clipPath id="clip0_13_295">
<rect width="532" height="401" fill="white"/>
</clipPath>
</defs>
</svg>
