<svg width="590" height="445" viewBox="0 0 590 445" fill="none" xmlns="http://www.w3.org/2000/svg">
<g clip-path="url(#clip0_13_157)">
<path opacity="0.18" d="M183.069 30.5087C169.95 46.0005 162.227 66.0113 146.862 79.2321C132.898 91.19 114.338 96.0913 98.278 105.094C85.1374 112.465 73.7289 122.569 64.8216 134.726C55.9143 146.883 49.7154 160.81 46.6429 175.567C43.5703 190.325 43.6956 205.571 47.0102 220.276C50.3249 234.981 56.7518 248.804 65.8576 260.813C72.3301 269.352 80.2847 277.208 83.5615 287.463C89.7908 306.825 77.3321 328.238 82.4036 347.924C85.2056 358.746 92.9286 367.506 100.42 375.802C116.063 393.183 133.002 411.363 155.558 417.516C183.543 425.151 213.972 412.452 242.097 419.601C255.412 422.985 267.211 430.597 279.843 435.997C325.822 455.695 383.751 442.462 416.692 404.805C423.547 396.983 429.51 388.131 438.078 382.233C458.746 367.993 487.484 375.072 510.873 365.953C537.898 355.409 552.742 320.984 541.846 294.114C535.235 277.788 521.167 265.413 514.231 249.226C494.211 202.53 539.889 146.367 519.43 99.8571C504.25 65.3509 460.321 54.6676 422.655 55.6293C401.431 56.1624 379.571 58.8737 359.435 52.1532C299.794 31.9918 243.127 -40.4619 183.069 30.5087Z" fill="#1E71FF"/>
<path opacity="0.18" d="M169.093 359.58C160.432 359.58 150.463 360.206 145.264 367.135L179.12 375.177C181.158 375.652 183.381 376.254 184.609 377.957C186.681 380.843 184.736 384.91 185.57 388.386C187.006 394.341 195.03 395.153 201.132 394.678L255.216 390.413C268.716 389.347 283.213 388.513 294.826 395.465C300.28 398.733 304.715 403.576 310.307 406.566C322.303 413.031 337.239 410.042 349.744 404.654C362.249 399.266 373.862 391.445 387.097 388.2C398.05 385.512 409.571 386.057 420.594 383.681C431.842 381.237 442.235 375.834 450.699 368.027C450.027 368.653 420.976 361.747 417.398 361.608C409.027 361.284 400.644 362.083 392.261 362.06C367.865 361.991 343.445 361.075 319.061 360.716C269.095 359.959 219.106 359.58 169.093 359.58Z" fill="#1E71FF"/>
<path d="M413.89 183.11C416.214 185.969 418.745 188.652 421.462 191.14C421.543 191.227 421.648 191.288 421.764 191.313C421.892 191.324 422.02 191.287 422.122 191.209L423.095 190.688C426.912 190.788 430.718 190.235 434.35 189.054C434.684 188.908 435.044 188.833 435.409 188.833C435.774 188.833 436.134 188.908 436.469 189.054C436.784 189.265 437.027 189.569 437.163 189.923C437.331 190.383 437.402 190.873 437.372 191.362C437.341 191.851 437.209 192.328 436.985 192.763C436.761 193.199 436.449 193.583 436.069 193.892C435.69 194.201 435.25 194.428 434.778 194.558C435.164 195.402 435.287 196.343 435.132 197.258C434.977 198.173 434.551 199.021 433.91 199.691C432.902 200.676 431.49 201.151 430.436 202.008C427.831 204.187 427.808 208.103 426.418 211.208C426.167 211.871 425.728 212.447 425.156 212.865C423.767 213.758 421.937 212.865 420.525 211.915C418.43 210.459 416.445 208.852 414.585 207.107C413.676 206.35 412.931 205.416 412.396 204.36C412.054 203.45 411.851 202.493 411.794 201.522L410.127 186.238C410.068 185.936 410.092 185.624 410.196 185.335C410.393 185.035 410.688 184.813 411.03 184.709C412.234 184.257 412.605 183.006 413.89 183.11Z" fill="url(#paint0_linear_13_157)"/>
<path d="M422.354 188.66C421.904 189.517 421.401 190.345 420.849 191.14C420.367 191.706 419.944 192.319 419.587 192.97C419.194 194 419.036 195.105 419.124 196.203C419.069 196.659 419.114 197.121 419.256 197.557C419.398 197.993 419.633 198.393 419.946 198.729C420.349 198.999 420.816 199.159 421.3 199.193C423.277 199.494 425.287 199.494 427.263 199.193C428.124 199.097 428.953 198.816 429.695 198.37C430.446 197.802 431.066 197.079 431.513 196.25C434.997 190.797 438.093 185.105 440.776 179.217C440.855 179.061 440.906 178.892 440.926 178.718C440.915 178.497 440.846 178.281 440.726 178.094C440.607 177.908 440.44 177.755 440.243 177.652C439.344 177.127 438.331 176.825 437.291 176.772C435.37 176.538 433.435 176.452 431.501 176.517C430.861 176.507 430.225 176.617 429.626 176.841C428.641 177.282 423.639 186.343 422.354 188.66Z" fill="#1E71FF"/>
<path d="M422.354 188.66C421.904 189.517 421.401 190.345 420.849 191.14C420.367 191.706 419.944 192.319 419.587 192.97C419.194 194 419.036 195.105 419.124 196.203C419.069 196.659 419.114 197.121 419.256 197.557C419.398 197.993 419.633 198.393 419.946 198.729C420.349 198.999 420.816 199.159 421.3 199.193C423.277 199.494 425.287 199.494 427.263 199.193C428.124 199.097 428.953 198.816 429.695 198.37C430.446 197.802 431.066 197.079 431.513 196.25C434.997 190.797 438.093 185.105 440.776 179.217C440.855 179.061 440.906 178.892 440.926 178.718C440.915 178.497 440.846 178.281 440.726 178.094C440.607 177.908 440.44 177.755 440.243 177.652C439.344 177.127 438.331 176.825 437.291 176.772C435.37 176.538 433.435 176.452 431.501 176.517C430.861 176.507 430.225 176.617 429.626 176.841C428.641 177.282 423.639 186.343 422.354 188.66Z" fill="url(#paint1_linear_13_157)"/>
<path d="M423.848 189.749C423.408 190.61 422.909 191.438 422.354 192.229C421.872 192.799 421.449 193.416 421.092 194.071C420.697 195.112 420.543 196.229 420.64 197.339C420.583 197.794 420.627 198.257 420.769 198.694C420.911 199.13 421.148 199.53 421.463 199.865C421.868 200.131 422.334 200.291 422.817 200.328C424.79 200.624 426.796 200.624 428.769 200.328C429.633 200.234 430.467 199.954 431.212 199.506C431.953 198.921 432.568 198.192 433.018 197.362C436.503 191.91 439.598 186.218 442.281 180.329C442.362 180.173 442.417 180.005 442.443 179.831C442.432 179.609 442.363 179.394 442.243 179.207C442.123 179.02 441.957 178.867 441.76 178.765C440.858 178.242 439.848 177.936 438.807 177.873C436.887 177.643 434.951 177.561 433.018 177.629C432.378 177.614 431.741 177.725 431.142 177.954C430.147 178.382 425.133 187.432 423.848 189.749Z" fill="#1E71FF"/>
<path d="M439.572 293.117C423.123 312.634 405.625 331.239 387.155 348.851C386.839 349.244 386.441 349.564 385.989 349.788C385.537 350.012 385.042 350.135 384.538 350.149C383.96 350.008 383.431 349.711 383.01 349.291C378.987 345.885 375.654 341.74 373.191 337.078C373.072 336.923 372.986 336.745 372.94 336.555C372.893 336.365 372.887 336.167 372.92 335.974C372.954 335.781 373.027 335.598 373.136 335.435C373.244 335.272 373.385 335.133 373.55 335.027C387.344 320.497 400.887 305.701 414.18 290.638C414.667 290.175 415.023 289.591 415.21 288.946C415.263 287.949 414.931 286.97 414.284 286.211C407.288 275.581 401.435 264.24 396.823 252.377C396.488 251.712 396.367 250.959 396.476 250.222C396.679 249.627 397.039 249.099 397.518 248.693C401.732 244.533 414.654 234.927 419.517 242.169C422.516 246.653 424.265 252.597 426.326 257.557C428.595 262.964 430.764 268.441 432.833 273.987C435.21 280.314 437.457 286.69 439.572 293.117Z" fill="#3E3E54"/>
<path d="M439.572 293.117C423.123 312.634 405.625 331.239 387.155 348.851C386.839 349.244 386.441 349.564 385.989 349.788C385.537 350.012 385.042 350.135 384.538 350.149C383.96 350.008 383.431 349.711 383.01 349.291C378.987 345.885 375.654 341.74 373.191 337.078C373.072 336.923 372.986 336.745 372.94 336.555C372.893 336.365 372.887 336.167 372.92 335.974C372.954 335.781 373.027 335.598 373.136 335.435C373.244 335.272 373.385 335.133 373.55 335.027C387.344 320.497 400.887 305.701 414.18 290.638C414.667 290.175 415.023 289.591 415.21 288.946C415.263 287.949 414.931 286.97 414.284 286.211C407.288 275.581 401.435 264.24 396.823 252.377C396.488 251.712 396.367 250.959 396.476 250.222C396.679 249.627 397.039 249.099 397.518 248.693C401.732 244.533 414.654 234.927 419.517 242.169C422.516 246.653 424.265 252.597 426.326 257.557C428.595 262.964 430.764 268.441 432.833 273.987C435.21 280.314 437.457 286.69 439.572 293.117Z" fill="url(#paint2_linear_13_157)"/>
<path d="M379.304 266.224C380.983 278.842 386.946 290.556 388.637 303.186C389.204 307.358 389.285 311.587 389.98 315.735C390.929 321.529 393.025 326.986 394.09 332.71C395.746 341.551 394.947 350.763 397.182 359.476C397.304 360.354 397.711 361.169 398.34 361.794C399.174 362.33 400.168 362.563 401.153 362.454L411.088 362.512C412.013 342.902 411.262 323.248 408.842 303.766C408.355 299.838 407.8 295.898 407.545 291.947C406.584 276.884 410.092 261.577 407.719 246.63C398.842 247.422 389.922 247.623 381.018 247.233C379.038 247.14 377.394 246.433 376.896 248.264C376.56 249.422 377.938 252.899 378.123 254.254C378.679 258.205 378.772 262.249 379.304 266.224Z" fill="#3E3E54"/>
<path d="M420.467 242.934C419.992 243.654 419.348 244.247 418.591 244.66C414.585 247.233 410.486 249.863 405.75 250.581C403.666 250.894 401.524 250.825 399.44 251.172C396.974 251.589 394.646 252.609 392.203 253.2C388.494 254.086 384.617 253.982 380.96 252.899C379.545 252.501 378.179 251.95 376.885 251.253C376.209 250.898 375.565 250.483 374.962 250.013C374.042 249.327 373.323 248.407 372.878 247.348C372.459 246.008 372.344 244.591 372.543 243.2C373.376 231.347 375.101 218.867 370.227 208.045L368.444 208.335C368.359 208.34 368.274 208.34 368.189 208.335H368.004L367.182 208.462C364.833 200.704 363.368 192.704 362.816 184.616C362.504 179.796 362.562 174.698 364.959 170.503C367.043 167.206 370.08 164.62 373.666 163.087C375.623 162.209 377.698 161.623 379.826 161.349C383.911 160.961 388.025 160.961 392.111 161.349L400.32 161.871C401.266 161.875 402.204 162.051 403.087 162.392C403.825 162.772 404.479 163.296 405.009 163.933C409.27 168.638 410.532 175.52 414.596 180.294C414.863 180.619 415.141 180.932 415.442 181.233C415.511 181.302 415.592 181.372 415.65 181.441C415.797 181.56 415.913 181.713 415.988 181.886C416.063 182.06 416.094 182.249 416.078 182.438C416.087 182.472 416.087 182.508 416.078 182.542C415.975 182.806 415.808 183.041 415.592 183.226C414.272 184.524 412.952 185.81 411.655 187.107C411.736 188.058 411.771 189.042 411.794 190.051C411.91 193.828 411.794 197.907 412.501 201.417C415.171 214.047 417.842 226.685 420.513 239.33C420.93 240.498 420.914 241.777 420.467 242.934Z" fill="#1E71FF"/>
<path d="M411.528 214.638C409.428 217.577 406.647 219.963 403.423 221.59C399.695 223.433 395.549 224.186 391.508 225.159C389.054 225.75 386.391 226.584 384.99 228.705C384.08 230.472 383.679 232.458 383.832 234.44C383.751 239.075 383.647 243.71 383.565 248.414C383.565 249.84 383.426 251.462 382.315 252.377C381.945 252.673 381.507 252.872 381.041 252.957C380.309 253.071 379.56 253.016 378.853 252.794C377.336 252.295 376.008 251.345 375.044 250.071C374.004 248.703 373.284 247.12 372.936 245.437C372.774 244.693 372.669 243.937 372.624 243.177C373.457 231.324 375.182 218.844 370.308 208.022C376.41 199.146 379.223 204.164 386.066 208.636C387.579 209.592 389.186 210.392 390.86 211.023C393.788 212.349 396.98 212.987 400.192 212.889C403.851 212.587 407.14 210.745 410.509 209.227C415.523 206.91 413.022 212.576 411.528 214.638Z" fill="url(#paint3_linear_13_157)"/>
<path d="M381.377 155.649C381.03 157.375 380.219 161.326 380.219 161.326C380.709 162.265 381.431 163.062 382.315 163.644C383.831 164.725 385.588 165.421 387.433 165.671C388.869 165.868 390.582 165.671 391.312 164.397C391.584 163.847 391.742 163.248 391.775 162.636L392.562 155.811C392.637 155.218 392.637 154.619 392.562 154.026C392.436 153.417 392.201 152.836 391.867 152.312C390.466 149.994 384.689 139.809 383.438 142.578C382.188 145.348 381.852 153.331 381.377 155.649Z" fill="url(#paint4_linear_13_157)"/>
<path d="M385.927 154.838C387.306 157.581 389.393 159.905 391.972 161.57C391.95 159.705 392.179 157.846 392.655 156.043C393.06 154.525 393.639 152.879 393.025 151.408C392.752 150.784 392.359 150.221 391.867 149.751C390.2 148.082 386.576 145.383 383.982 146.182C383.033 146.472 383.253 146.622 383.484 147.642C383.658 148.441 383.855 149.241 384.086 150.029C384.542 151.688 385.158 153.299 385.927 154.838Z" fill="url(#paint5_linear_13_157)"/>
<path d="M245.733 119.242C244.583 119.242 243.48 118.786 242.666 117.974C241.852 117.161 241.394 116.059 241.391 114.909V82.3143C241.36 81.7256 241.45 81.1368 241.654 80.5839C241.858 80.0309 242.173 79.5253 242.578 79.0979C242.984 78.6704 243.472 78.33 244.014 78.0974C244.555 77.8648 245.138 77.7449 245.727 77.7449C246.316 77.7449 246.899 77.8648 247.44 78.0974C247.981 78.33 248.47 78.6704 248.875 79.0979C249.281 79.5253 249.595 80.0309 249.8 80.5839C250.004 81.1368 250.093 81.7256 250.063 82.3143V114.909C250.06 116.057 249.603 117.157 248.791 117.97C247.98 118.782 246.88 119.239 245.733 119.242Z" fill="#1E71FF"/>
<path d="M238.056 337.345C288.901 337.345 330.118 287.678 330.118 226.411C330.118 165.143 288.901 115.476 238.056 115.476C187.211 115.476 145.994 165.143 145.994 226.411C145.994 287.678 187.211 337.345 238.056 337.345Z" fill="#1E71FF"/>
<path d="M232.394 314.565C278.513 314.565 315.9 272.653 315.9 220.953C315.9 169.253 278.513 127.341 232.394 127.341C186.275 127.341 148.888 169.253 148.888 220.953C148.888 272.653 186.275 314.565 232.394 314.565Z" fill="url(#paint6_linear_13_157)"/>
<path d="M238.056 115.476C187.214 115.476 146.005 165.15 146.005 226.422C146.005 287.694 187.214 337.356 238.056 337.356C288.898 337.356 330.118 287.683 330.118 226.422C330.118 165.162 288.91 115.476 238.056 115.476ZM235.161 319.999C187.527 319.999 148.9 276.582 148.9 223.05C148.9 169.518 187.55 126.102 235.161 126.102C282.773 126.102 321.434 169.507 321.434 223.05C321.434 276.594 282.808 319.999 235.161 319.999Z" fill="url(#paint7_linear_13_157)"/>
<path d="M197.971 236.422C200.078 236.538 199.615 232.529 199.8 230.42C200.402 223.56 199.626 216.62 200.309 209.772C200.993 202.924 203.482 195.775 209.051 191.719C210.73 190.56 212.687 189.552 213.926 187.895C215.385 185.96 215.628 183.388 216.473 181.117C218.789 174.779 226.165 171.164 232.892 171.847C239.619 172.531 245.571 176.853 249.635 182.276C251.95 185.311 253.791 188.799 256.86 191.035C258.458 192.194 260.333 192.97 261.827 194.233C264.104 196.403 265.626 199.245 266.169 202.344C267.558 208.37 267.084 214.65 267.408 220.884C267.732 227.117 269.017 233.548 273.197 238.102C275.397 240.489 278.257 242.192 280.469 244.568C282.68 246.943 284.209 250.454 282.912 253.432C281.615 256.409 278.477 257.533 275.675 258.796C264.432 263.825 254.915 272.805 242.931 275.598C232.186 278.1 220.781 275.204 210.997 270.105C201.213 265.007 192.899 257.614 184.076 250.987C167.252 238.542 184.076 235.599 197.971 236.422Z" fill="url(#paint8_linear_13_157)"/>
<path d="M203.494 258.217C199.557 250.628 193.003 242.598 184.481 243.362C182.328 243.559 180.232 244.347 178.067 244.521C173.736 244.788 169.707 242.493 165.515 241.358C161.324 240.222 155.836 240.871 154.099 244.834C153.022 247.314 153.821 250.176 154.713 252.725C161.66 272.423 173.991 290.417 191.116 302.271C208.241 314.124 230.229 319.397 250.503 314.634C259.245 312.572 267.489 308.76 275.409 304.519C282.078 300.95 288.666 296.987 293.935 291.53C303.337 281.716 307.47 268.124 311.303 255.077C312.461 251.01 313.445 245.958 310.342 243.073C308.771 241.785 306.791 241.103 304.761 241.149C302.582 241.088 300.413 241.466 298.384 242.263C296.355 243.059 294.507 244.257 292.951 245.784C291.677 247.059 290.542 248.588 288.852 249.202C286.64 250.013 284.22 248.994 281.904 248.692C270.499 247.221 263.957 261.936 253.247 266.154C247.828 268.286 241.877 267.394 236.354 268.981C231.271 270.441 226.906 274.983 221.707 275.818C211.494 277.428 207.384 265.725 203.494 258.217Z" fill="white"/>
<path d="M203.494 258.217C199.557 250.628 193.003 242.598 184.481 243.362C182.328 243.559 180.232 244.347 178.067 244.521C173.736 244.788 169.707 242.493 165.515 241.358C161.324 240.222 155.836 240.871 154.099 244.834C153.022 247.314 153.821 250.176 154.713 252.725C161.66 272.423 173.991 290.417 191.116 302.271C208.241 314.124 230.229 319.397 250.503 314.634C259.245 312.572 267.489 308.76 275.409 304.519C282.078 300.95 288.666 296.987 293.935 291.53C303.337 281.716 307.47 268.124 311.303 255.077C312.461 251.01 313.445 245.958 310.342 243.073C308.771 241.785 306.791 241.103 304.761 241.149C302.582 241.088 300.413 241.466 298.384 242.263C296.355 243.059 294.507 244.257 292.951 245.784C291.677 247.059 290.542 248.588 288.852 249.202C286.64 250.013 284.22 248.994 281.904 248.692C270.499 247.221 263.957 261.936 253.247 266.154C247.828 268.286 241.877 267.394 236.354 268.981C231.271 270.441 226.906 274.983 221.707 275.818C211.494 277.428 207.384 265.725 203.494 258.217Z" fill="url(#paint9_linear_13_157)"/>
<path d="M201.838 258.692C200.17 258.437 198.735 260.187 198.677 261.879C198.776 263.578 199.35 265.216 200.333 266.606L206.932 278.054C199.568 279.213 193.119 273.651 186.89 269.561C184.736 268.159 181.448 267.058 179.943 269.144C178.877 270.615 179.618 272.794 180.973 273.987C182.449 275.051 184.087 275.869 185.824 276.409C191.683 278.854 196.245 283.778 201.954 286.489C205.705 288.251 209.827 289.015 213.752 290.348C217.481 291.611 221.429 293.824 222.355 297.694C223.038 300.556 221.834 303.488 221.846 306.454C221.857 309.42 224.231 312.861 227.021 311.946C228.805 311.355 229.604 309.339 230.182 307.555L234.42 294.461C239.052 297.532 238.6 305.457 243.579 307.844L244.795 299.49C244.849 298.684 245.061 297.896 245.42 297.173C245.848 296.584 246.393 296.091 247.02 295.724C247.648 295.357 248.345 295.124 249.067 295.041C251.927 294.461 254.938 294.693 257.705 293.778C261.7 292.445 264.513 288.957 267.628 286.119C271.241 282.816 275.455 280.256 279.276 277.185C286.502 271.336 292.147 263.766 295.695 255.17C292.997 254.266 290.091 256.166 288.47 258.507C286.849 260.847 286.015 263.675 284.382 266.027C283.002 267.959 281.135 269.491 278.971 270.468C276.807 271.445 274.424 271.831 272.063 271.588C271.572 270.195 271.514 268.686 271.897 267.259C272.279 265.832 273.083 264.554 274.205 263.593C274.809 263.187 275.368 262.717 275.872 262.191C277.852 259.804 275.131 255.934 272.039 255.656C268.948 255.378 266.134 257.232 263.506 258.901C258.251 262.241 252.677 265.051 246.867 267.29C242.769 268.877 238.427 270.198 234.038 269.85C227.323 269.329 221.603 265.216 215.014 264.161C212.467 263.767 208.936 265.134 206.77 264.045C204.605 262.956 204.617 259.109 201.838 258.692Z" fill="url(#paint10_linear_13_157)"/>
<path d="M226.524 308.597C225.624 309.902 225.001 311.376 224.694 312.931C224.643 314.62 225.086 316.287 225.968 317.728C226.639 319.003 227.681 320.393 229.106 320.3C229.638 320.227 230.148 320.037 230.599 319.744C231.487 319.28 232.293 318.673 232.985 317.948C234.606 316.117 234.883 313.476 234.814 310.996C234.744 308.516 234.409 306.048 235.08 303.708C235.926 300.753 238.311 298.32 238.681 295.272C237.049 294.82 233.853 293.198 232.209 293.488C230.565 293.778 230.854 295.944 230.622 297.231C229.96 301.238 228.571 305.09 226.524 308.597Z" fill="url(#paint11_linear_13_157)"/>
<path d="M236.979 299.444C237.376 300.333 237.694 301.256 237.929 302.201C238.102 303.126 238.195 304.064 238.206 305.005L238.774 317.137C238.72 318.385 239 319.625 239.584 320.729C240.638 322.351 242.826 322.826 244.737 322.595C245.353 322.558 245.945 322.341 246.439 321.969C246.783 321.645 247.052 321.25 247.226 320.81C247.687 319.887 248.003 318.898 248.164 317.879C248.546 315.202 247.469 312.537 246.265 310.115C245.061 307.694 243.695 305.26 243.428 302.561C243.208 300.429 243.718 298.262 243.498 296.13C243.313 294.311 242.595 292.526 242.734 290.707C241.401 290.871 240.079 291.111 238.774 291.425C237.732 291.68 235.671 291.924 234.837 292.584C233.864 293.534 236.458 298.169 236.979 299.444Z" fill="url(#paint12_linear_13_157)"/>
<path d="M217.851 171.986C215.067 168.553 213.671 164.199 213.938 159.785C214.235 155.375 216.075 151.211 219.136 148.024C221.452 145.637 224.567 143.795 227.832 144.12C229.059 142.428 231.502 141.941 233.54 141.489C237.073 140.646 240.768 140.766 244.239 141.837C247.722 142.922 250.693 145.236 252.599 148.349C254.195 151.428 255.062 154.834 255.135 158.302C255.187 161.757 255.574 165.2 256.292 168.58C257.207 171.917 259.164 175.15 262.267 176.691C262.766 176.865 263.21 177.169 263.552 177.571C264.154 178.452 263.552 179.657 262.719 180.375C261.86 181.134 260.842 181.689 259.739 181.998C258.636 182.307 257.478 182.362 256.35 182.16L257.346 184.35C257.402 184.414 257.441 184.491 257.461 184.574C257.48 184.657 257.479 184.743 257.457 184.825C257.435 184.907 257.394 184.983 257.336 185.046C257.278 185.108 257.206 185.156 257.126 185.184C256.225 185.736 255.194 186.038 254.139 186.061C253.083 186.083 252.04 185.825 251.117 185.311C251.196 186.178 251.153 187.052 250.989 187.907C248.609 187.636 246.322 186.819 244.308 185.52C244.308 186.922 242.78 187.918 241.391 187.837C240.004 187.616 238.681 187.099 237.512 186.319C237.167 186.091 236.767 185.959 236.354 185.937C235.509 185.937 234.941 186.748 234.293 187.281C233.672 187.729 232.958 188.031 232.204 188.163C231.45 188.296 230.676 188.256 229.939 188.046C228.468 187.618 227.082 186.94 225.84 186.041C226.049 186.876 225.169 187.675 224.312 187.675C223.451 187.593 222.649 187.202 222.054 186.574C220.535 185.298 219.481 183.554 219.055 181.615C218.564 182.279 217.931 182.825 217.203 183.214C216.836 183.401 216.419 183.463 216.014 183.392C215.609 183.321 215.238 183.12 214.956 182.82C214.32 181.998 214.76 180.827 215.223 179.9L216.832 176.644C217.654 174.964 219.044 173.446 217.851 171.986Z" fill="#3E3E54"/>
<path d="M262.811 180.364C261.956 181.124 260.939 181.679 259.838 181.988C258.737 182.297 257.58 182.352 256.455 182.148L257.462 184.338C257.509 184.413 257.54 184.497 257.554 184.585C257.568 184.672 257.564 184.762 257.543 184.848C257.478 184.991 257.368 185.109 257.23 185.184C256.327 185.728 255.296 186.026 254.241 186.046C253.186 186.066 252.145 185.809 251.221 185.3C251.295 186.167 251.252 187.04 251.094 187.895C248.713 187.625 246.427 186.808 244.413 185.508C244.471 186.91 242.896 187.895 241.483 187.826C240.096 187.619 238.774 187.1 237.616 186.308C237.268 186.085 236.87 185.954 236.458 185.926C235.613 185.926 235.046 186.748 234.397 187.281C233.776 187.729 233.062 188.031 232.308 188.163C231.554 188.296 230.78 188.256 230.044 188.046C228.573 187.616 227.187 186.938 225.945 186.041C226.153 186.876 225.285 187.664 224.416 187.675C223.555 187.593 222.753 187.202 222.158 186.574C220.633 185.298 219.577 183.549 219.16 181.604C218.672 182.274 218.038 182.824 217.307 183.214C216.931 183.412 216.501 183.481 216.082 183.409C215.664 183.338 215.28 183.131 214.991 182.82C214.366 181.998 214.818 180.816 215.269 179.9C215.813 178.811 216.334 177.734 216.879 176.644C217.712 174.964 219.079 173.446 217.886 172.01C216.35 170.141 215.225 167.97 214.586 165.637C214.075 163.75 213.868 161.795 213.972 159.843C214.274 155.434 216.114 151.272 219.171 148.082C221.487 145.765 224.59 143.865 227.867 144.189C229.083 142.497 231.537 142.011 233.575 141.559C237.108 140.716 240.803 140.836 244.274 141.906C247.757 142.992 250.728 145.306 252.634 148.418C254.226 151.499 255.09 154.904 255.158 158.372C255.246 161.568 255.587 164.753 256.177 167.896C256.177 168.163 256.292 168.406 256.362 168.649C257.288 171.986 259.245 175.231 262.348 176.76C262.843 176.948 263.287 177.25 263.645 177.641C264.212 178.44 263.552 179.645 262.811 180.364Z" fill="url(#paint13_linear_13_157)"/>
<path d="M406.387 147.063C405.795 150.187 404.329 153.08 402.161 155.405C399.845 157.607 396.371 158.766 393.465 157.618C391.46 156.65 389.743 155.171 388.486 153.331C387.169 151.794 386.045 150.102 385.14 148.291C383.894 147.534 382.756 146.61 381.759 145.545C381.129 144.979 380.622 144.288 380.271 143.516C379.921 142.744 379.733 141.908 379.721 141.061C379.86 139.38 381.643 137.816 383.195 138.465C384.723 136.275 384.99 133.436 386.205 131.049C387.09 129.41 388.363 128.013 389.914 126.983C391.465 125.952 393.245 125.319 395.098 125.14C396.955 125.001 398.821 125.237 400.586 125.834C402.35 126.431 403.976 127.377 405.368 128.616C406.366 129.358 407.123 130.378 407.545 131.548C408.135 133.645 407.776 136.495 407.545 138.65C407.368 141.479 406.981 144.291 406.387 147.063Z" fill="url(#paint14_linear_13_157)"/>
<path d="M410.046 122.973C406.237 123.367 402.798 120.876 399.625 118.674C396.453 116.473 392.62 114.352 388.984 115.581C387.989 115.923 387.086 116.49 386.344 117.238C385.862 117.832 385.282 118.342 384.631 118.744C384.143 118.934 383.639 119.081 383.125 119.184C380.103 120.088 378.969 123.819 378.714 126.924C378.558 128.926 378.558 130.937 378.714 132.938C378.888 135.116 379.432 137.573 381.319 138.674C382.35 139.265 383.739 139.415 384.376 140.423C384.642 140.84 384.851 141.455 385.349 141.478C385.471 141.476 385.591 141.449 385.702 141.399C385.814 141.35 385.914 141.278 385.997 141.188C387.942 139.485 386.958 136.321 387.433 133.772C387.477 133.483 387.584 133.206 387.745 132.961C388.064 132.616 388.461 132.354 388.903 132.196C390.397 131.408 391.547 130.096 392.134 128.512C394.156 130.748 396.732 132.411 399.602 133.332C400.559 133.567 401.47 133.959 402.3 134.491C402.963 135.1 403.574 135.763 404.129 136.472C406.653 139.068 411.296 138.697 413.913 136.194C415.148 134.863 416.022 133.238 416.452 131.473C416.882 129.709 416.853 127.864 416.368 126.113C415.869 126.392 415.307 126.539 414.735 126.539C414.164 126.539 413.602 126.392 413.103 126.113C413.404 126.287 416.055 122.174 415.418 121.478C414.782 120.783 411.019 122.869 410.046 122.973Z" fill="#3E3E54"/>
<path d="M410.046 122.973C406.237 123.367 402.798 120.876 399.625 118.674C396.453 116.473 392.62 114.352 388.984 115.581C387.989 115.923 387.086 116.49 386.344 117.238C385.862 117.832 385.282 118.342 384.631 118.744C384.143 118.934 383.639 119.081 383.125 119.184C380.103 120.088 378.969 123.819 378.714 126.924C378.558 128.926 378.558 130.937 378.714 132.938C378.888 135.116 379.432 137.573 381.319 138.674C382.35 139.265 383.739 139.415 384.376 140.423C384.642 140.84 384.851 141.455 385.349 141.478C385.471 141.476 385.591 141.449 385.702 141.399C385.814 141.35 385.914 141.278 385.997 141.188C387.942 139.485 386.958 136.321 387.433 133.772C387.477 133.483 387.584 133.206 387.745 132.961C388.064 132.616 388.461 132.354 388.903 132.196C390.397 131.408 391.547 130.096 392.134 128.512C394.156 130.748 396.732 132.411 399.602 133.332C400.559 133.567 401.47 133.959 402.3 134.491C402.963 135.1 403.574 135.763 404.129 136.472C406.653 139.068 411.296 138.697 413.913 136.194C415.148 134.863 416.022 133.238 416.452 131.473C416.882 129.709 416.853 127.864 416.368 126.113C415.869 126.392 415.307 126.539 414.735 126.539C414.164 126.539 413.602 126.392 413.103 126.113C413.404 126.287 416.055 122.174 415.418 121.478C414.782 120.783 411.019 122.869 410.046 122.973Z" fill="url(#paint15_linear_13_157)"/>
<path d="M380.775 195.682C384.289 199.248 388.004 202.61 391.902 205.751C392.257 206.073 392.675 206.317 393.129 206.469C393.752 206.564 394.388 206.488 394.97 206.249C396.302 205.82 397.622 205.38 398.942 204.928C402.687 203.77 406.337 202.325 409.861 200.606C413.334 198.787 416.241 192.901 419.552 192.97C419.621 193.642 419.066 194.558 419.135 195.23C419.135 195.448 419.209 195.661 419.344 195.832C419.473 195.939 419.629 196.008 419.795 196.029C422.111 196.504 424.346 195.079 426.534 194.152C426.871 193.972 427.254 193.896 427.634 193.932C428.56 194.106 428.792 195.438 428.306 196.25C427.725 196.991 427.065 197.667 426.337 198.266C424.624 200.12 424.693 202.993 423.5 205.218C422.997 206.154 422.279 206.957 421.406 207.561C420.532 208.165 419.528 208.553 418.475 208.694C417.877 208.728 417.282 208.798 416.692 208.903C415.718 209.231 414.817 209.747 414.041 210.421C409.579 213.495 404.805 216.09 399.799 218.161C397.821 219.167 395.735 219.944 393.581 220.478C391.905 220.697 390.243 221.01 388.602 221.417C387.12 221.903 385.708 222.784 384.144 222.691C381.91 222.541 380.358 220.466 379.119 218.589C376.803 215.021 373.77 210.884 373.017 206.574C372.658 204.534 374.546 203.098 375.796 201.661L380.775 195.682Z" fill="url(#paint16_linear_13_157)"/>
<path d="M399.532 370.646C399.515 371.107 399.636 371.563 399.88 371.955C400.09 372.192 400.357 372.371 400.656 372.477C401.794 372.877 402.992 373.077 404.199 373.068C412.111 373.438 420.023 373.5 427.935 373.253C425.139 370.033 421.32 367.877 417.121 367.147C415.164 366.811 413.149 366.787 411.215 366.301C411.033 366.265 410.862 366.185 410.717 366.069C410.589 365.893 410.513 365.684 410.497 365.467L410.011 362.361C410.016 362.194 409.962 362.03 409.861 361.898C409.706 361.779 409.511 361.725 409.316 361.747L403.886 361.654C402.821 361.654 401.316 361.376 400.412 362.048C399.509 362.72 399.579 364.25 399.532 365.316C399.471 367.108 399.471 368.885 399.532 370.646Z" fill="#3E3E54"/>
<path d="M366.359 344.112C365.98 344.408 365.697 344.812 365.549 345.27C365.487 345.722 365.56 346.181 365.757 346.591C367.807 351.991 371.859 356.336 375.831 360.496C379.027 363.879 382.292 367.321 386.379 369.545C388.324 363.821 386.275 357.286 382.419 352.628C381.921 352.151 381.603 351.517 381.516 350.832C381.651 350.207 381.869 349.603 382.164 349.036C382.25 348.407 382.191 347.766 381.99 347.163C381.789 346.561 381.453 346.012 381.007 345.56C379.182 342.949 376.898 340.692 374.268 338.898C372.369 337.739 371.952 338.631 370.47 340.056L366.359 344.112Z" fill="#3E3E54"/>
<path d="M214.899 194.894C213.387 195.474 212.053 196.441 211.031 197.698C210.274 198.972 209.819 200.403 209.7 201.881C207.442 217.176 208.646 232.737 209.85 248.148L211.541 269.7C211.853 273.778 212.235 278.042 214.447 281.484C216.05 283.794 218.208 285.662 220.723 286.918C229.071 291.368 239.086 290.672 248.512 289.873C250.592 289.817 252.648 289.405 254.59 288.656C257.431 287.166 259.636 284.696 260.797 281.704C263.043 276.733 263.425 271.137 263.552 265.667C263.888 251.126 262.568 236.549 263.471 222.019C263.981 213.908 264.965 204.998 260.183 198.451C257.113 194.605 252.774 191.98 247.944 191.047C237.454 188.695 224.601 190.41 214.899 194.894Z" fill="white"/>
<path d="M207.013 263.721C206.944 266.758 207.244 269.793 207.905 272.759C208.39 275.062 209.197 277.285 210.302 279.363C212.859 283.656 216.74 287.002 221.359 288.899C225.96 290.771 230.839 291.867 235.798 292.144C240.924 292.714 246.112 292.321 251.094 290.985C256.109 289.621 260.425 286.414 263.182 282.005C266.181 276.814 266.1 270.418 265.799 264.474C265.463 258.055 264.93 251.508 262.441 245.576C262.198 244.892 261.802 244.274 261.283 243.768C260.654 243.323 259.896 243.1 259.126 243.134C258.357 243.167 257.621 243.456 257.033 243.953C255.879 244.976 254.965 246.242 254.359 247.661L246.601 262.887C246.212 263.796 245.641 264.617 244.922 265.297C243.347 266.594 240.985 266.316 239.133 265.552C235.831 264.058 232.971 261.735 230.831 258.808C228.596 255.981 226.755 252.864 224.613 249.967C223.811 248.804 222.835 247.773 221.718 246.908C219.614 245.614 217.183 244.95 214.713 244.996C212.178 244.892 211.587 245.274 210.603 247.661C208.439 252.751 207.222 258.194 207.013 263.721Z" fill="#3E3E54"/>
<path d="M207.013 263.721C206.944 266.758 207.244 269.793 207.905 272.759C208.39 275.062 209.197 277.285 210.302 279.363C212.859 283.656 216.74 287.002 221.359 288.899C225.96 290.771 230.839 291.867 235.798 292.144C240.924 292.714 246.112 292.321 251.094 290.985C256.109 289.621 260.425 286.414 263.182 282.005C266.181 276.814 266.1 270.418 265.799 264.474C265.463 258.055 264.93 251.508 262.441 245.576C262.198 244.892 261.802 244.274 261.283 243.768C260.654 243.323 259.896 243.1 259.126 243.134C258.357 243.167 257.621 243.456 257.033 243.953C255.879 244.976 254.965 246.242 254.359 247.661L246.601 262.887C246.212 263.796 245.641 264.617 244.922 265.297C243.347 266.594 240.985 266.316 239.133 265.552C235.831 264.058 232.971 261.735 230.831 258.808C228.596 255.981 226.755 252.864 224.613 249.967C223.811 248.804 222.835 247.773 221.718 246.908C219.614 245.614 217.183 244.95 214.713 244.996C212.178 244.892 211.587 245.274 210.603 247.661C208.439 252.751 207.222 258.194 207.013 263.721Z" fill="url(#paint17_linear_13_157)"/>
<path d="M211.576 197.153C209.677 198.011 208.507 199.934 207.569 201.788C204.029 208.889 202.148 216.702 202.069 224.638C202.069 226.422 202.208 228.404 203.482 229.655C205.184 231.335 207.963 230.93 210.256 230.281C213.509 229.365 217.11 227.72 217.955 224.487C218.963 220.606 215.327 215.345 214.239 211.649C213.822 210.258 210.371 197.698 211.576 197.153Z" fill="white"/>
<path d="M230.866 192.368C230.928 193.226 231.144 194.066 231.502 194.848C232.139 195.952 233.182 196.763 234.409 197.107C234.729 197.213 235.067 197.256 235.404 197.234C235.682 197.204 235.952 197.125 236.203 197.003C237.01 196.63 237.714 196.065 238.253 195.357C239.061 194.155 239.554 192.768 239.689 191.325C239.995 188.885 240.088 186.423 239.966 183.967C240.003 183.641 239.965 183.311 239.855 183.001C239.744 182.692 239.565 182.412 239.33 182.183C239.05 182.034 238.742 181.947 238.427 181.928C237.25 181.799 236.067 181.733 234.883 181.731C233.68 181.649 232.472 181.708 231.282 181.905C230.727 182.032 230.796 182.264 230.738 182.82C230.68 183.376 230.646 183.979 230.611 184.593C230.541 185.821 230.53 187.049 230.611 188.266C230.692 189.483 230.704 191.012 230.866 192.368Z" fill="url(#paint18_linear_13_157)"/>
<path d="M230.785 192.009C230.866 191.519 231.052 191.053 231.329 190.641C231.521 190.441 231.751 190.28 232.005 190.169C232.259 190.058 232.533 189.998 232.811 189.993C235.768 189.575 238.769 189.575 241.726 189.993C242.117 190.001 242.501 190.097 242.849 190.274C243.198 190.45 243.503 190.703 243.741 191.012C244.113 191.766 244.269 192.608 244.193 193.446C244.248 198.003 243.954 202.559 243.313 207.072C242.977 209.204 242.41 211.568 240.893 212.576C239.376 213.584 237.905 212.981 236.435 212.483L232.463 211.104C232.054 210.993 231.664 210.821 231.306 210.594C229.511 209.273 229.326 205.392 229.372 203.051C229.447 199.33 229.92 195.628 230.785 192.009Z" fill="#1E71FF"/>
<path d="M230.785 192.009C230.866 191.519 231.052 191.053 231.329 190.641C231.521 190.441 231.751 190.28 232.005 190.169C232.259 190.058 232.533 189.998 232.811 189.993C235.768 189.575 238.769 189.575 241.726 189.993C242.117 190.001 242.501 190.097 242.849 190.274C243.198 190.45 243.503 190.703 243.741 191.012C244.113 191.766 244.269 192.608 244.193 193.446C244.248 198.003 243.954 202.559 243.313 207.072C242.977 209.204 242.41 211.568 240.893 212.576C239.376 213.584 237.905 212.981 236.435 212.483L232.463 211.104C232.054 210.993 231.664 210.821 231.306 210.594C229.511 209.273 229.326 205.392 229.372 203.051C229.447 199.33 229.92 195.628 230.785 192.009Z" fill="url(#paint19_linear_13_157)"/>
<path d="M231.827 193.48C231.904 192.99 232.09 192.522 232.371 192.113C232.758 191.714 233.286 191.481 233.841 191.464C236.802 191.047 239.807 191.047 242.768 191.464C243.158 191.477 243.541 191.575 243.889 191.751C244.237 191.927 244.542 192.177 244.783 192.484C245.151 193.239 245.307 194.08 245.235 194.917C245.287 199.475 244.988 204.031 244.343 208.543C244.019 210.687 243.44 213.039 241.923 214.047C240.58 214.951 238.936 214.464 237.465 213.955L233.506 212.576C233.095 212.467 232.705 212.295 232.348 212.066C230.553 210.745 230.368 206.863 230.414 204.523C230.483 200.802 230.957 197.099 231.827 193.48Z" fill="#1E71FF"/>
<path d="M222.784 174.825C223.672 176.338 224.754 177.729 226.003 178.962C227.693 180.769 229.476 182.623 231.896 183.272C234.178 183.718 236.54 183.489 238.693 182.612C239.663 182.308 240.604 181.92 241.506 181.453C243.78 180.05 245.718 178.163 247.18 175.926C247.811 175.13 248.34 174.258 248.755 173.33C249.173 172.24 249.419 171.09 249.484 169.924C249.617 168.212 249.617 166.491 249.484 164.779C249.486 162.571 248.794 160.418 247.504 158.626C246.667 157.678 245.636 156.919 244.482 156.402C239.909 154.189 234.582 154.351 229.522 154.861C227.207 155.104 224.752 155.486 223.096 157.109C220.931 159.229 220.954 161.825 221.197 164.559C221.568 168.151 221.001 171.5 222.784 174.825Z" fill="url(#paint20_linear_13_157)"/>
<path d="M256.142 167.827C254.37 167.827 252.518 167.699 252.275 168.058C251.937 168.419 251.482 168.647 250.991 168.7C250.5 168.753 250.007 168.628 249.6 168.348C249.6 167.444 249.6 166.54 249.6 165.625C249.308 165.713 248.999 165.732 248.698 165.68C248.397 165.628 248.113 165.507 247.867 165.326C247.621 165.145 247.42 164.909 247.281 164.637C247.142 164.366 247.067 164.065 247.064 163.76C245.124 164.676 242.958 165.002 240.835 164.698C238.974 164.625 237.128 164.333 235.335 163.829C232.932 162.96 230.78 161.511 229.069 159.611C227.359 157.712 226.142 155.419 225.528 152.937C225.4 155.023 223.42 156.842 222.645 158.731C222.263 159.94 221.988 161.181 221.823 162.439C221.612 163.644 221.137 164.787 220.433 165.787C219.728 166.8 218.657 167.498 217.446 167.734C216.775 166.695 215.744 165.94 214.551 165.613C214.041 163.727 213.834 161.771 213.938 159.82C214.239 155.411 216.08 151.248 219.136 148.059C221.452 145.742 224.555 143.841 227.832 144.166C229.048 142.474 231.502 141.987 233.54 141.536C237.074 140.693 240.768 140.813 244.239 141.883C247.722 142.968 250.693 145.282 252.599 148.395C254.191 151.475 255.055 154.881 255.123 158.348C255.214 161.53 255.555 164.699 256.142 167.827Z" fill="#3E3E54"/>
<path d="M256.142 167.827C254.37 167.827 252.518 167.699 252.275 168.058C251.937 168.419 251.482 168.647 250.991 168.7C250.5 168.753 250.007 168.628 249.6 168.348C249.6 167.444 249.6 166.54 249.6 165.625C249.308 165.713 248.999 165.732 248.698 165.68C248.397 165.628 248.113 165.507 247.867 165.326C247.621 165.145 247.42 164.909 247.281 164.637C247.142 164.366 247.067 164.065 247.064 163.76C245.124 164.676 242.958 165.002 240.835 164.698C238.974 164.625 237.128 164.333 235.335 163.829C232.932 162.96 230.78 161.511 229.069 159.611C227.359 157.712 226.142 155.419 225.528 152.937C225.4 155.023 223.42 156.842 222.645 158.731C222.263 159.94 221.988 161.181 221.823 162.439C221.612 163.644 221.137 164.787 220.433 165.787C219.728 166.8 218.657 167.498 217.446 167.734C216.775 166.695 215.744 165.94 214.551 165.613C214.041 163.727 213.834 161.771 213.938 159.82C214.239 155.411 216.08 151.248 219.136 148.059C221.452 145.742 224.555 143.841 227.832 144.166C229.048 142.474 231.502 141.987 233.54 141.536C237.074 140.693 240.768 140.813 244.239 141.883C247.722 142.968 250.693 145.282 252.599 148.395C254.191 151.475 255.055 154.881 255.123 158.348C255.214 161.53 255.555 164.699 256.142 167.827Z" fill="url(#paint21_linear_13_157)"/>
<path d="M251.395 173.029C252.148 172.827 252.808 172.368 253.259 171.731C253.602 171.147 253.767 170.474 253.734 169.796C253.759 169.334 253.679 168.873 253.498 168.447C253.317 168.021 253.041 167.642 252.691 167.34C252.426 167.151 252.118 167.03 251.795 166.987C251.472 166.945 251.143 166.983 250.838 167.097C250.533 167.212 250.26 167.399 250.044 167.644C249.829 167.888 249.676 168.181 249.6 168.499C249.513 168.925 249.489 169.363 249.53 169.796C249.526 170.81 249.409 171.821 249.183 172.809C249.056 173.458 249.183 173.4 249.843 173.342C250.371 173.301 250.892 173.196 251.395 173.029Z" fill="url(#paint22_linear_13_157)"/>
<path d="M218.581 172.102C217.75 171.199 217.287 170.016 217.284 168.788C217.247 168.166 217.367 167.545 217.631 166.981C217.85 166.51 218.195 166.109 218.627 165.822C219.025 165.536 219.511 165.401 219.999 165.442C220.487 165.482 220.945 165.695 221.29 166.042C221.469 166.282 221.602 166.553 221.684 166.842C221.927 167.718 222.066 168.621 222.101 169.53C222.17 170.376 222.239 171.222 222.297 172.056C222.355 172.716 222.61 173.215 221.962 173.365C220.653 173.713 219.576 172.6 218.581 172.102Z" fill="url(#paint23_linear_13_157)"/>
<path d="M265.891 221.973C267.332 223.284 268.511 224.856 269.365 226.608C270.202 228.361 270.33 230.37 269.724 232.216C269.409 233.128 268.839 233.931 268.082 234.529C267.324 235.126 266.411 235.494 265.451 235.588C264.104 235.564 262.789 235.167 261.653 234.44C258.815 232.985 256.234 231.075 254.011 228.786C253.665 228.484 253.425 228.077 253.328 227.627C253.33 227.336 253.389 227.048 253.502 226.779C253.616 226.511 253.781 226.267 253.988 226.063C255.69 223.885 257.531 220.27 259.778 218.694C261.098 217.709 261.063 217.952 262.568 219.076C263.744 219.96 264.855 220.928 265.891 221.973Z" fill="white"/>
<path d="M238.276 211.359C237.684 210.885 237.166 210.327 236.736 209.702C235.381 207.535 236.319 204.546 235.161 202.252C234.733 201.406 234.003 200.537 234.247 199.621C234.559 198.463 236.203 198.243 237.419 198.463C239.377 198.822 241.246 199.562 242.919 200.641C243.886 199.897 244.614 198.886 245.015 197.733C246.462 199.285 245.744 201.788 246.173 203.874C246.601 205.96 248.488 207.709 250.133 209.192L262.244 219.806C262.814 220.091 263.299 220.521 263.651 221.053C264.004 221.584 264.211 222.199 264.252 222.835C264.293 223.472 264.166 224.108 263.885 224.68C263.604 225.253 263.178 225.742 262.649 226.098C261.329 227.662 259.893 229.806 257.879 228.844C255.563 227.766 253.247 224.719 251.337 223.05L238.276 211.359Z" fill="url(#paint24_linear_13_157)"/>
<path d="M208.635 246.248L233.239 293.465L242.63 290.487C242.63 290.487 230.437 230.234 223.594 226.897C221.915 226.086 217.955 227.407 213.637 229.782C210.82 231.33 208.72 233.919 207.785 236.996C206.851 240.072 207.156 243.393 208.635 246.248Z" fill="#3E3E54"/>
<path d="M208.635 246.248L233.239 293.465L242.63 290.487C242.63 290.487 230.437 230.234 223.594 226.897C221.915 226.086 217.955 227.407 213.637 229.782C210.82 231.33 208.72 233.919 207.785 236.996C206.851 240.072 207.156 243.393 208.635 246.248Z" fill="url(#paint25_linear_13_157)"/>
<path d="M253.375 227.708C253.375 227.708 247.331 228.195 246.427 232.054C245.524 235.912 229.916 292.978 229.916 292.978L241.495 295.875C241.495 295.875 263.668 247.638 264.652 240.883C265.636 234.128 253.375 227.708 253.375 227.708Z" fill="#3E3E54"/>
<path d="M253.375 227.708C253.375 227.708 247.331 228.195 246.427 232.054C245.524 235.912 229.916 292.978 229.916 292.978L241.495 295.875C241.495 295.875 263.668 247.638 264.652 240.883C265.636 234.128 253.375 227.708 253.375 227.708Z" fill="#3E3E54"/>
<path d="M220.873 321.98C220.821 323.832 221.489 325.631 222.737 326.998C223.588 327.738 224.636 328.213 225.753 328.365C226.87 328.517 228.007 328.34 229.025 327.855C231.06 326.834 232.617 325.059 233.367 322.907C234.093 320.772 234.426 318.522 234.351 316.268C234.401 315.559 234.282 314.848 234.003 314.194C233.606 313.551 233.036 313.033 232.359 312.699C230.194 311.448 225.748 309.849 223.826 311.795C221.695 313.951 220.781 319.095 220.873 321.98Z" fill="#1E71FF"/>
<path d="M240.487 325.538C241.249 326.908 242.364 328.048 243.717 328.839C245.069 329.63 246.609 330.042 248.176 330.033C249.346 330.004 250.468 329.556 251.337 328.77C251.904 328.083 252.317 327.28 252.546 326.419C252.776 325.557 252.818 324.656 252.668 323.776C252.597 322.527 252.335 321.297 251.893 320.127C250.859 317.905 249.408 315.903 247.62 314.229C247.535 314.105 247.407 314.018 247.261 313.985C247.116 313.996 246.978 314.053 246.867 314.148C245.671 315.112 244.36 315.925 242.965 316.569C240.545 317.519 238.785 315.805 238.809 319.095C238.796 321.353 239.375 323.574 240.487 325.538Z" fill="#1E71FF"/>
<path d="M220.873 321.98C220.821 323.832 221.489 325.631 222.737 326.998C223.588 327.738 224.636 328.213 225.753 328.365C226.87 328.517 228.007 328.34 229.025 327.855C231.06 326.834 232.617 325.059 233.367 322.907C234.093 320.772 234.426 318.522 234.351 316.268C234.401 315.559 234.282 314.848 234.003 314.194C233.606 313.551 233.036 313.033 232.359 312.699C230.194 311.448 225.748 309.849 223.826 311.795C221.695 313.951 220.781 319.095 220.873 321.98Z" fill="#3E3E54"/>
<path d="M240.487 325.538C241.249 326.908 242.364 328.048 243.717 328.839C245.069 329.63 246.609 330.042 248.176 330.033C249.346 330.004 250.468 329.556 251.337 328.77C251.904 328.083 252.317 327.28 252.546 326.419C252.776 325.557 252.818 324.656 252.668 323.776C252.597 322.527 252.335 321.297 251.893 320.127C250.859 317.905 249.408 315.903 247.62 314.229C247.535 314.105 247.407 314.018 247.261 313.985C247.116 313.996 246.978 314.053 246.867 314.148C245.671 315.112 244.36 315.925 242.965 316.569C240.545 317.519 238.785 315.805 238.809 319.095C238.796 321.353 239.375 323.574 240.487 325.538Z" fill="#3E3E54"/>
<path d="M348.494 305.585C332.538 334.124 309.462 352.338 291.144 365.038C290.421 365.543 289.56 365.814 288.678 365.814C288.184 365.816 287.694 365.73 287.231 365.559C286.476 365.294 285.81 364.825 285.306 364.205C284.802 363.584 284.479 362.836 284.373 362.043C284.268 361.25 284.384 360.443 284.708 359.712C285.033 358.981 285.553 358.354 286.212 357.9C303.754 345.745 325.846 328.319 340.921 301.356C358.034 270.743 363.337 232.436 356.68 187.501C350.531 145.973 326.992 115.975 286.71 98.3508C267.744 90.2065 247.517 85.3969 226.917 84.1335C225.766 84.1043 224.673 83.6185 223.879 82.783C223.086 81.9474 222.656 80.8306 222.685 79.6782C222.714 78.5258 223.2 77.4322 224.035 76.638C224.87 75.8438 225.986 75.414 227.137 75.4432C248.788 76.6757 270.056 81.6954 289.975 90.2746C332.723 108.895 358.764 142.08 365.317 186.227C372.195 233.108 366.545 273.28 348.494 305.585Z" fill="#1E71FF"/>
<path d="M344.325 306.28C328.451 334.668 305.502 352.86 287.219 365.548C286.465 365.283 285.799 364.814 285.294 364.193C284.79 363.572 284.467 362.824 284.362 362.031C284.256 361.238 284.372 360.431 284.697 359.7C285.021 358.969 285.542 358.342 286.2 357.889C303.742 345.734 325.834 328.307 340.91 301.344C358.023 270.731 363.326 232.424 356.668 187.49C350.52 145.962 326.98 115.963 286.698 98.3392C267.735 90.2002 247.512 85.3946 226.917 84.1335C226.003 84.1037 225.121 83.7857 224.398 83.2248C223.675 82.6639 223.148 81.8888 222.891 81.0101C222.634 80.1313 222.661 79.1939 222.968 78.3315C223.276 77.4692 223.847 76.726 224.602 76.2079C245.698 77.6367 266.4 82.6319 285.83 90.9814C328.578 109.521 354.63 142.775 361.184 186.934C368.038 233.803 362.388 273.964 344.325 306.28Z" fill="url(#paint26_linear_13_157)"/>
<path d="M342.195 405.639L342.137 405.708C341.73 406.202 341.219 406.599 340.64 406.872C340.062 407.144 339.43 407.285 338.791 407.284C337.779 407.291 336.798 406.938 336.023 406.288L287.856 366.44L220.827 392.522C219.752 392.939 218.556 392.911 217.502 392.445C216.448 391.979 215.621 391.112 215.205 390.037C214.789 388.961 214.817 387.764 215.283 386.709C215.749 385.654 216.614 384.828 217.689 384.411L289.477 356.487L341.581 399.579C342.457 400.307 343.012 401.35 343.127 402.483C343.241 403.617 342.907 404.75 342.195 405.639Z" fill="#1E71FF"/>
<path d="M342.195 405.639L342.137 405.708C341.73 406.202 341.219 406.599 340.64 406.872C340.062 407.144 339.43 407.285 338.791 407.284C337.779 407.291 336.798 406.938 336.023 406.288L287.856 366.44L220.827 392.522C219.963 392.862 219.014 392.913 218.119 392.669C217.224 392.425 216.431 391.898 215.86 391.167C216.337 390.557 216.969 390.085 217.689 389.799L289.442 361.898L341.546 405.002C341.787 405.187 342.005 405.401 342.195 405.639Z" fill="url(#paint27_linear_13_157)"/>
<path d="M232.487 201.742C232.055 201.746 231.631 201.623 231.269 201.388C230.907 201.153 230.621 200.817 230.449 200.421C230.31 200.027 230.345 199.587 230.194 199.181C230.044 198.776 229.627 198.416 229.233 198.59C229.082 198.664 228.957 198.781 228.874 198.926C227.994 200.212 228.284 201.939 227.925 203.468C227.605 204.578 227.083 205.619 226.385 206.539C222.873 211.331 218.411 215.346 213.278 218.334C211.849 219.044 210.59 220.051 209.584 221.289C209.021 222.207 208.699 223.252 208.646 224.327C208.594 225.402 208.813 226.474 209.283 227.442C209.509 228.052 209.936 228.568 210.494 228.903C211.051 229.238 211.707 229.372 212.351 229.284C215.111 229.151 217.776 228.239 220.04 226.654C224.3 224.012 227.999 220.555 230.924 216.481C231.494 215.603 232.145 214.78 232.869 214.024C233.91 213.261 234.849 212.365 235.659 211.359C236.014 210.578 236.21 209.735 236.236 208.877C236.262 208.02 236.117 207.166 235.81 206.365C235.38 205.113 235.104 203.814 234.988 202.495C234.988 201.962 235.15 201.336 234.49 201.336C233.83 201.336 233.17 201.777 232.487 201.742Z" fill="url(#paint28_linear_13_157)"/>
<path d="M383.068 140.585C382.905 140.45 382.7 140.375 382.489 140.375C382.277 140.375 382.072 140.45 381.91 140.585C381.757 140.734 381.642 140.916 381.573 141.117C381.505 141.319 381.485 141.534 381.516 141.744C381.58 142.163 381.743 142.56 381.991 142.903C382.315 143.39 383.044 144.479 383.693 144.548C384.341 144.618 384.596 144.224 384.422 143.668C384.249 143.111 383.612 142.891 383.438 142.347C383.264 141.802 383.542 140.991 383.068 140.585Z" fill="url(#paint29_linear_13_157)"/>
<path d="M416.113 182.646C416.009 182.911 415.842 183.145 415.627 183.33C414.307 184.628 412.987 185.914 411.69 187.212C411.771 188.162 407.8 177.502 407.059 171.372C408.216 171.639 409.838 175.15 410.671 176.134C411.91 177.594 413.265 178.95 414.596 180.317L415.048 180.769C415.264 180.988 415.465 181.22 415.65 181.465C415.855 181.748 415.987 182.079 416.032 182.426C416.032 182.426 416.113 182.6 416.113 182.646Z" fill="url(#paint30_linear_13_157)"/>
<path d="M379.826 161.442C379.729 162.214 379.36 162.925 378.783 163.447C376.12 166.193 372.473 167.027 370.331 170.573C369.279 172.507 368.5 174.577 368.015 176.725C366.927 180.317 366.152 183.996 365.7 187.722C365.248 191.467 365.795 195.264 367.286 198.729C368.351 201.047 369.961 203.109 370.146 205.589C370.206 206.091 370.125 206.6 369.914 207.06C369.578 207.569 369.104 207.971 368.548 208.219L368.027 208.451L367.205 208.578C364.839 200.783 363.367 192.744 362.816 184.616C362.504 179.796 362.562 174.698 364.959 170.503C367.043 167.206 370.08 164.62 373.666 163.087C375.628 162.241 377.703 161.686 379.826 161.442Z" fill="url(#paint31_linear_13_157)"/>
<path d="M380.416 180.225L384.839 188.961C385.618 190.395 386.258 191.901 386.75 193.457C387.572 196.389 387.329 199.575 388.452 202.391C387.907 201.035 384.11 199.367 383.021 198.185C380.52 195.473 382.79 196.261 383.16 193.48C383.38 191.858 381.528 189.158 381.099 187.49C380.485 185.12 380.255 182.667 380.416 180.225Z" fill="url(#paint32_linear_13_157)"/>
<path d="M467.117 68.7459L404.118 68.7459C400.626 68.7459 397.796 71.5784 397.796 75.0724V97.0182C397.796 100.512 400.626 103.345 404.118 103.345H467.117C470.609 103.345 473.439 100.512 473.439 97.0182V75.0724C473.439 71.5784 470.609 68.7459 467.117 68.7459Z" fill="white"/>
<path d="M398.108 79.8347V115.928L406.7 84.4463L398.108 79.8347Z" fill="white"/>
<path d="M145.542 131.548L208.542 131.548C212.033 131.548 214.864 128.715 214.864 125.221V103.275C214.864 99.7812 212.033 96.9487 208.542 96.9487L145.542 96.9487C142.051 96.9487 139.22 99.7812 139.22 103.275V125.221C139.22 128.715 142.051 131.548 145.542 131.548Z" fill="white"/>
<path d="M214.551 108.038V144.12L205.96 112.649L214.551 108.038Z" fill="white"/>
<path d="M429.475 83.7631V82.3692H430.869V83.7631H429.475ZM435.13 83.7631V82.3692H436.523V83.7631H435.13ZM440.784 83.7631V82.3692H442.178V83.7631H440.784Z" fill="#1E71FF"/>
<path d="M165.295 110.969V109.576H166.689V110.969H165.295ZM170.95 110.969V109.576H172.344V110.969H170.95ZM176.605 110.969V109.576H177.999V110.969H176.605Z" fill="#1E71FF"/>
</g>
<defs>
<linearGradient id="paint0_linear_13_157" x1="410.127" y1="198.185" x2="437.406" y2="198.185" gradientUnits="userSpaceOnUse">
<stop stop-color="#E5C5D5"/>
<stop offset="0.42" stop-color="#EAD4D1"/>
<stop offset="1" stop-color="#F0E9CB"/>
</linearGradient>
<linearGradient id="paint1_linear_13_157" x1="431.86" y1="188.602" x2="415.174" y2="184.448" gradientUnits="userSpaceOnUse">
<stop stop-opacity="0"/>
<stop offset="0.99"/>
</linearGradient>
<linearGradient id="paint2_linear_13_157" x1="359.644" y1="250.28" x2="436.39" y2="334.358" gradientUnits="userSpaceOnUse">
<stop stop-opacity="0"/>
<stop offset="0.99"/>
</linearGradient>
<linearGradient id="paint3_linear_13_157" x1="414.562" y1="210.502" x2="324.686" y2="253.914" gradientUnits="userSpaceOnUse">
<stop stop-opacity="0"/>
<stop offset="0.99"/>
</linearGradient>
<linearGradient id="paint4_linear_13_157" x1="380.208" y1="153.945" x2="392.632" y2="153.945" gradientUnits="userSpaceOnUse">
<stop stop-color="#E5C5D5"/>
<stop offset="0.42" stop-color="#EAD4D1"/>
<stop offset="1" stop-color="#F0E9CB"/>
</linearGradient>
<linearGradient id="paint5_linear_13_157" x1="390.941" y1="154.131" x2="343.467" y2="147.663" gradientUnits="userSpaceOnUse">
<stop stop-color="#E5C5D5"/>
<stop offset="0.42" stop-color="#EAD4D1"/>
<stop offset="1" stop-color="#F0E9CB"/>
</linearGradient>
<linearGradient id="paint6_linear_13_157" x1="229.696" y1="297.845" x2="241.152" y2="-28.7585" gradientUnits="userSpaceOnUse">
<stop stop-opacity="0"/>
<stop offset="0.99"/>
</linearGradient>
<linearGradient id="paint7_linear_13_157" x1="237.35" y1="205.681" x2="233.187" y2="84.5624" gradientUnits="userSpaceOnUse">
<stop offset="0.02" stop-color="white" stop-opacity="0"/>
<stop offset="0.58" stop-color="white" stop-opacity="0.39"/>
<stop offset="0.68" stop-color="white" stop-opacity="0.68"/>
<stop offset="1" stop-color="white"/>
</linearGradient>
<linearGradient id="paint8_linear_13_157" x1="245.42" y1="182.646" x2="194.068" y2="398.983" gradientUnits="userSpaceOnUse">
<stop stop-opacity="0"/>
<stop offset="0.99"/>
</linearGradient>
<linearGradient id="paint9_linear_13_157" x1="223.108" y1="298.888" x2="244.848" y2="187.948" gradientUnits="userSpaceOnUse">
<stop stop-opacity="0"/>
<stop offset="0.99"/>
</linearGradient>
<linearGradient id="paint10_linear_13_157" x1="236.643" y1="244.405" x2="242.534" y2="362.987" gradientUnits="userSpaceOnUse">
<stop stop-opacity="0"/>
<stop offset="0.99"/>
</linearGradient>
<linearGradient id="paint11_linear_13_157" x1="224.671" y1="306.871" x2="238.681" y2="306.871" gradientUnits="userSpaceOnUse">
<stop stop-color="#E5C5D5"/>
<stop offset="0.42" stop-color="#EAD4D1"/>
<stop offset="1" stop-color="#F0E9CB"/>
</linearGradient>
<linearGradient id="paint12_linear_13_157" x1="234.606" y1="306.674" x2="248.245" y2="306.674" gradientUnits="userSpaceOnUse">
<stop stop-color="#E5C5D5"/>
<stop offset="0.42" stop-color="#EAD4D1"/>
<stop offset="1" stop-color="#F0E9CB"/>
</linearGradient>
<linearGradient id="paint13_linear_13_157" x1="239.214" y1="195.114" x2="238.75" y2="160.898" gradientUnits="userSpaceOnUse">
<stop stop-opacity="0"/>
<stop offset="0.99"/>
</linearGradient>
<linearGradient id="paint14_linear_13_157" x1="395.376" y1="123.495" x2="392.489" y2="150.538" gradientUnits="userSpaceOnUse">
<stop stop-color="#E5C5D5"/>
<stop offset="0.42" stop-color="#EAD4D1"/>
<stop offset="1" stop-color="#F0E9CB"/>
</linearGradient>
<linearGradient id="paint15_linear_13_157" x1="392.539" y1="117.377" x2="399.657" y2="134.186" gradientUnits="userSpaceOnUse">
<stop stop-opacity="0"/>
<stop offset="0.99"/>
</linearGradient>
<linearGradient id="paint16_linear_13_157" x1="373.006" y1="207.802" x2="428.583" y2="207.802" gradientUnits="userSpaceOnUse">
<stop stop-color="#E5C5D5"/>
<stop offset="0.42" stop-color="#EAD4D1"/>
<stop offset="1" stop-color="#F0E9CB"/>
</linearGradient>
<linearGradient id="paint17_linear_13_157" x1="232.093" y1="303.07" x2="238.343" y2="251.753" gradientUnits="userSpaceOnUse">
<stop stop-opacity="0"/>
<stop offset="0.99"/>
</linearGradient>
<linearGradient id="paint18_linear_13_157" x1="230.553" y1="189.483" x2="240.001" y2="189.483" gradientUnits="userSpaceOnUse">
<stop stop-color="#E5C5D5"/>
<stop offset="0.42" stop-color="#EAD4D1"/>
<stop offset="1" stop-color="#F0E9CB"/>
</linearGradient>
<linearGradient id="paint19_linear_13_157" x1="228.712" y1="183.689" x2="239.933" y2="205.872" gradientUnits="userSpaceOnUse">
<stop stop-opacity="0"/>
<stop offset="0.99"/>
</linearGradient>
<linearGradient id="paint20_linear_13_157" x1="221.151" y1="169.055" x2="249.612" y2="169.055" gradientUnits="userSpaceOnUse">
<stop stop-color="#E5C5D5"/>
<stop offset="0.42" stop-color="#EAD4D1"/>
<stop offset="1" stop-color="#F0E9CB"/>
</linearGradient>
<linearGradient id="paint21_linear_13_157" x1="234.71" y1="150.04" x2="235.046" y2="165.463" gradientUnits="userSpaceOnUse">
<stop stop-opacity="0"/>
<stop offset="0.99"/>
</linearGradient>
<linearGradient id="paint22_linear_13_157" x1="249.137" y1="170.167" x2="253.734" y2="170.167" gradientUnits="userSpaceOnUse">
<stop stop-color="#E5C5D5"/>
<stop offset="0.42" stop-color="#EAD4D1"/>
<stop offset="1" stop-color="#F0E9CB"/>
</linearGradient>
<linearGradient id="paint23_linear_13_157" x1="217.284" y1="169.46" x2="222.39" y2="169.46" gradientUnits="userSpaceOnUse">
<stop stop-color="#E5C5D5"/>
<stop offset="0.42" stop-color="#EAD4D1"/>
<stop offset="1" stop-color="#F0E9CB"/>
</linearGradient>
<linearGradient id="paint24_linear_13_157" x1="234.189" y1="213.422" x2="264.282" y2="213.422" gradientUnits="userSpaceOnUse">
<stop stop-color="#E5C5D5"/>
<stop offset="0.42" stop-color="#EAD4D1"/>
<stop offset="1" stop-color="#F0E9CB"/>
</linearGradient>
<linearGradient id="paint25_linear_13_157" x1="211.379" y1="238.032" x2="246.98" y2="283.765" gradientUnits="userSpaceOnUse">
<stop stop-opacity="0"/>
<stop offset="0.99"/>
</linearGradient>
<linearGradient id="paint26_linear_13_157" x1="289.454" y1="219.713" x2="528.52" y2="211.406" gradientUnits="userSpaceOnUse">
<stop stop-opacity="0"/>
<stop offset="0.99"/>
</linearGradient>
<linearGradient id="paint27_linear_13_157" x1="280.029" y1="393.38" x2="293.664" y2="324.638" gradientUnits="userSpaceOnUse">
<stop stop-opacity="0"/>
<stop offset="0.99"/>
</linearGradient>
<linearGradient id="paint28_linear_13_157" x1="208.646" y1="213.908" x2="236.238" y2="213.908" gradientUnits="userSpaceOnUse">
<stop stop-color="#E5C5D5"/>
<stop offset="0.42" stop-color="#EAD4D1"/>
<stop offset="1" stop-color="#F0E9CB"/>
</linearGradient>
<linearGradient id="paint29_linear_13_157" x1="384.885" y1="140.377" x2="372.231" y2="155.165" gradientUnits="userSpaceOnUse">
<stop stop-color="#E5C5D5"/>
<stop offset="0.42" stop-color="#EAD4D1"/>
<stop offset="1" stop-color="#F0E9CB"/>
</linearGradient>
<linearGradient id="paint30_linear_13_157" x1="417.827" y1="176.586" x2="394.99" y2="184.027" gradientUnits="userSpaceOnUse">
<stop stop-opacity="0"/>
<stop offset="0.99"/>
</linearGradient>
<linearGradient id="paint31_linear_13_157" x1="381.782" y1="187.525" x2="345.282" y2="176.207" gradientUnits="userSpaceOnUse">
<stop offset="0.02" stop-color="white" stop-opacity="0"/>
<stop offset="0.58" stop-color="white" stop-opacity="0.39"/>
<stop offset="0.68" stop-color="white" stop-opacity="0.68"/>
<stop offset="1" stop-color="white"/>
</linearGradient>
<linearGradient id="paint32_linear_13_157" x1="398.166" y1="184.524" x2="346.65" y2="209.916" gradientUnits="userSpaceOnUse">
<stop stop-opacity="0"/>
<stop offset="0.99"/>
</linearGradient>
<clipPath id="clip0_13_157">
<rect width="590" height="445" fill="white"/>
</clipPath>
</defs>
</svg>
